<svg id="Calque_1" data-name="Calque 1" xmlns="http://www.w3.org/2000/svg" viewBox="0 0 5576.46 749.17"><defs><style>.cls-1{fill:#fff;stroke:#fff;stroke-miterlimit:10;stroke-width:5px;}</style></defs><line class="cls-1" x1="445.78" y1="1.52" x2="2.15" y2="746.77"/><line class="cls-1" x1="462.27" y1="1.53" x2="18.63" y2="746.78"/><line class="cls-1" x1="478.75" y1="1.54" x2="35.12" y2="746.79"/><line class="cls-1" x1="495.24" y1="1.55" x2="51.6" y2="746.8"/><line class="cls-1" x1="511.73" y1="1.56" x2="68.09" y2="746.81"/><line class="cls-1" x1="528.21" y1="1.57" x2="84.58" y2="746.82"/><line class="cls-1" x1="544.7" y1="1.58" x2="101.06" y2="746.82"/><line class="cls-1" x1="561.18" y1="1.58" x2="117.55" y2="746.83"/><line class="cls-1" x1="577.67" y1="1.59" x2="134.03" y2="746.84"/><line class="cls-1" x1="594.15" y1="1.6" x2="150.52" y2="746.85"/><line class="cls-1" x1="610.64" y1="1.61" x2="167" y2="746.86"/><line class="cls-1" x1="627.12" y1="1.62" x2="183.49" y2="746.87"/><line class="cls-1" x1="643.61" y1="1.63" x2="199.97" y2="746.88"/><line class="cls-1" x1="660.1" y1="1.64" x2="216.46" y2="746.89"/><line class="cls-1" x1="676.58" y1="1.64" x2="232.95" y2="746.89"/><line class="cls-1" x1="693.07" y1="1.65" x2="249.43" y2="746.9"/><line class="cls-1" x1="709.55" y1="1.66" x2="265.92" y2="746.91"/><line class="cls-1" x1="726.04" y1="1.67" x2="282.4" y2="746.92"/><line class="cls-1" x1="742.52" y1="1.68" x2="298.89" y2="746.93"/><line class="cls-1" x1="759.01" y1="1.69" x2="315.37" y2="746.94"/><line class="cls-1" x1="775.49" y1="1.7" x2="331.86" y2="746.95"/><line class="cls-1" x1="791.98" y1="1.71" x2="348.34" y2="746.95"/><line class="cls-1" x1="808.46" y1="1.71" x2="364.83" y2="746.96"/><line class="cls-1" x1="824.95" y1="1.72" x2="381.31" y2="746.97"/><line class="cls-1" x1="841.44" y1="1.73" x2="397.8" y2="746.98"/><line class="cls-1" x1="857.92" y1="1.74" x2="414.29" y2="746.99"/><line class="cls-1" x1="874.41" y1="1.75" x2="430.77" y2="747"/><line class="cls-1" x1="890.89" y1="1.76" x2="447.26" y2="747.01"/><line class="cls-1" x1="907.38" y1="1.77" x2="463.74" y2="747.02"/><line class="cls-1" x1="923.86" y1="1.78" x2="480.23" y2="747.02"/><line class="cls-1" x1="940.35" y1="1.78" x2="496.71" y2="747.03"/><line class="cls-1" x1="956.83" y1="1.79" x2="513.2" y2="747.04"/><line class="cls-1" x1="973.32" y1="1.8" x2="529.68" y2="747.05"/><line class="cls-1" x1="989.81" y1="1.81" x2="546.17" y2="747.06"/><line class="cls-1" x1="1006.29" y1="1.82" x2="562.66" y2="747.07"/><line class="cls-1" x1="1022.78" y1="1.83" x2="579.14" y2="747.08"/><line class="cls-1" x1="1039.26" y1="1.84" x2="595.63" y2="747.08"/><line class="cls-1" x1="1055.75" y1="1.84" x2="612.11" y2="747.09"/><line class="cls-1" x1="1072.23" y1="1.85" x2="628.6" y2="747.1"/><line class="cls-1" x1="1088.72" y1="1.86" x2="645.08" y2="747.11"/><line class="cls-1" x1="1105.2" y1="1.87" x2="661.57" y2="747.12"/><line class="cls-1" x1="1121.69" y1="1.88" x2="678.05" y2="747.13"/><line class="cls-1" x1="1138.18" y1="1.89" x2="694.54" y2="747.14"/><line class="cls-1" x1="1154.66" y1="1.9" x2="711.03" y2="747.15"/><line class="cls-1" x1="1171.15" y1="1.91" x2="727.51" y2="747.15"/><line class="cls-1" x1="1187.63" y1="1.91" x2="744" y2="747.16"/><line class="cls-1" x1="1204.12" y1="1.92" x2="760.48" y2="747.17"/><line class="cls-1" x1="1220.6" y1="1.93" x2="776.97" y2="747.18"/><line class="cls-1" x1="1237.09" y1="1.94" x2="793.45" y2="747.19"/><line class="cls-1" x1="1253.57" y1="1.95" x2="809.94" y2="747.2"/><line class="cls-1" x1="1270.06" y1="1.96" x2="826.42" y2="747.21"/><line class="cls-1" x1="1286.54" y1="1.97" x2="842.91" y2="747.21"/><line class="cls-1" x1="1305.36" y1="1.77" x2="861.72" y2="747.02"/><line class="cls-1" x1="1321.84" y1="1.78" x2="878.21" y2="747.03"/><line class="cls-1" x1="1338.33" y1="1.79" x2="894.69" y2="747.03"/><line class="cls-1" x1="1354.81" y1="1.79" x2="911.18" y2="747.04"/><line class="cls-1" x1="1371.3" y1="1.8" x2="927.66" y2="747.05"/><line class="cls-1" x1="1387.79" y1="1.81" x2="944.15" y2="747.06"/><line class="cls-1" x1="1404.27" y1="1.82" x2="960.64" y2="747.07"/><line class="cls-1" x1="1420.76" y1="1.83" x2="977.12" y2="747.08"/><line class="cls-1" x1="1437.24" y1="1.84" x2="993.61" y2="747.09"/><line class="cls-1" x1="1453.73" y1="1.85" x2="1010.09" y2="747.1"/><line class="cls-1" x1="1470.21" y1="1.86" x2="1026.58" y2="747.1"/><line class="cls-1" x1="1486.7" y1="1.86" x2="1043.06" y2="747.11"/><line class="cls-1" x1="1503.18" y1="1.87" x2="1059.55" y2="747.12"/><line class="cls-1" x1="1519.67" y1="1.88" x2="1076.03" y2="747.13"/><line class="cls-1" x1="1536.16" y1="1.89" x2="1092.52" y2="747.14"/><line class="cls-1" x1="1552.64" y1="1.9" x2="1109.01" y2="747.15"/><line class="cls-1" x1="1569.13" y1="1.91" x2="1125.49" y2="747.16"/><line class="cls-1" x1="1585.61" y1="1.92" x2="1141.98" y2="747.16"/><line class="cls-1" x1="1602.1" y1="1.92" x2="1158.46" y2="747.17"/><line class="cls-1" x1="1618.58" y1="1.93" x2="1174.95" y2="747.18"/><line class="cls-1" x1="1635.07" y1="1.94" x2="1191.43" y2="747.19"/><line class="cls-1" x1="1651.55" y1="1.95" x2="1207.92" y2="747.2"/><line class="cls-1" x1="1668.04" y1="1.96" x2="1224.4" y2="747.21"/><line class="cls-1" x1="1684.52" y1="1.97" x2="1240.89" y2="747.22"/><line class="cls-1" x1="1701.01" y1="1.98" x2="1257.37" y2="747.23"/><line class="cls-1" x1="1717.5" y1="1.99" x2="1273.86" y2="747.23"/><line class="cls-1" x1="1733.98" y1="1.99" x2="1290.35" y2="747.24"/><line class="cls-1" x1="1750.47" y1="2" x2="1306.83" y2="747.25"/><line class="cls-1" x1="1766.95" y1="2.01" x2="1323.32" y2="747.26"/><line class="cls-1" x1="1783.44" y1="2.02" x2="1339.8" y2="747.27"/><line class="cls-1" x1="1799.92" y1="2.03" x2="1356.29" y2="747.28"/><line class="cls-1" x1="1816.41" y1="2.04" x2="1372.77" y2="747.29"/><line class="cls-1" x1="1832.89" y1="2.05" x2="1389.26" y2="747.29"/><line class="cls-1" x1="1849.38" y1="2.05" x2="1405.74" y2="747.3"/><line class="cls-1" x1="1865.87" y1="2.06" x2="1422.23" y2="747.31"/><line class="cls-1" x1="1882.35" y1="2.07" x2="1438.72" y2="747.32"/><line class="cls-1" x1="1898.84" y1="2.08" x2="1455.2" y2="747.33"/><line class="cls-1" x1="1915.32" y1="2.09" x2="1471.69" y2="747.34"/><line class="cls-1" x1="1931.81" y1="2.1" x2="1488.17" y2="747.35"/><line class="cls-1" x1="1948.29" y1="2.11" x2="1504.66" y2="747.36"/><line class="cls-1" x1="1964.78" y1="2.12" x2="1521.14" y2="747.36"/><line class="cls-1" x1="1981.26" y1="2.12" x2="1537.63" y2="747.37"/><line class="cls-1" x1="1997.75" y1="2.13" x2="1554.11" y2="747.38"/><line class="cls-1" x1="2014.23" y1="2.14" x2="1570.6" y2="747.39"/><line class="cls-1" x1="2030.72" y1="2.15" x2="1587.08" y2="747.4"/><line class="cls-1" x1="2047.21" y1="2.16" x2="1603.57" y2="747.41"/><line class="cls-1" x1="2063.69" y1="2.17" x2="1620.06" y2="747.42"/><line class="cls-1" x1="2080.18" y1="2.18" x2="1636.54" y2="747.42"/><line class="cls-1" x1="2096.66" y1="2.18" x2="1653.03" y2="747.43"/><line class="cls-1" x1="2113.15" y1="2.19" x2="1669.51" y2="747.44"/><line class="cls-1" x1="2129.63" y1="2.2" x2="1686" y2="747.45"/><line class="cls-1" x1="2146.12" y1="2.21" x2="1702.48" y2="747.46"/><line class="cls-1" x1="2161.93" y1="1.28" x2="1718.3" y2="746.53"/><line class="cls-1" x1="2178.42" y1="1.29" x2="1734.78" y2="746.54"/><line class="cls-1" x1="2194.9" y1="1.3" x2="1751.27" y2="746.55"/><line class="cls-1" x1="2211.39" y1="1.3" x2="1767.75" y2="746.55"/><line class="cls-1" x1="2227.87" y1="1.31" x2="1784.24" y2="746.56"/><line class="cls-1" x1="2244.36" y1="1.32" x2="1800.72" y2="746.57"/><line class="cls-1" x1="2260.85" y1="1.33" x2="1817.21" y2="746.58"/><line class="cls-1" x1="2277.33" y1="1.34" x2="1833.7" y2="746.59"/><line class="cls-1" x1="2293.82" y1="1.35" x2="1850.18" y2="746.6"/><line class="cls-1" x1="2310.3" y1="1.36" x2="1866.67" y2="746.61"/><line class="cls-1" x1="2326.79" y1="1.37" x2="1883.15" y2="746.61"/><line class="cls-1" x1="2343.27" y1="1.37" x2="1899.64" y2="746.62"/><line class="cls-1" x1="2359.76" y1="1.38" x2="1916.12" y2="746.63"/><line class="cls-1" x1="2376.24" y1="1.39" x2="1932.61" y2="746.64"/><line class="cls-1" x1="2392.73" y1="1.4" x2="1949.09" y2="746.65"/><line class="cls-1" x1="2409.21" y1="1.41" x2="1965.58" y2="746.66"/><line class="cls-1" x1="2425.7" y1="1.42" x2="1982.06" y2="746.67"/><line class="cls-1" x1="2442.19" y1="1.43" x2="1998.55" y2="746.68"/><line class="cls-1" x1="2458.67" y1="1.43" x2="2015.04" y2="746.68"/><line class="cls-1" x1="2475.16" y1="1.44" x2="2031.52" y2="746.69"/><line class="cls-1" x1="2491.64" y1="1.45" x2="2048.01" y2="746.7"/><line class="cls-1" x1="2508.13" y1="1.46" x2="2064.49" y2="746.71"/><line class="cls-1" x1="2524.61" y1="1.47" x2="2080.98" y2="746.72"/><line class="cls-1" x1="2541.1" y1="1.48" x2="2097.46" y2="746.73"/><line class="cls-1" x1="2557.58" y1="1.49" x2="2113.95" y2="746.74"/><line class="cls-1" x1="2574.07" y1="1.5" x2="2130.43" y2="746.74"/><line class="cls-1" x1="2590.56" y1="1.5" x2="2146.92" y2="746.75"/><line class="cls-1" x1="2607.04" y1="1.51" x2="2163.41" y2="746.76"/><line class="cls-1" x1="2623.53" y1="1.52" x2="2179.89" y2="746.77"/><line class="cls-1" x1="2640.01" y1="1.53" x2="2196.38" y2="746.78"/><line class="cls-1" x1="2656.5" y1="1.54" x2="2212.86" y2="746.79"/><line class="cls-1" x1="2672.98" y1="1.55" x2="2229.35" y2="746.8"/><line class="cls-1" x1="2689.47" y1="1.56" x2="2245.83" y2="746.81"/><line class="cls-1" x1="2705.95" y1="1.56" x2="2262.32" y2="746.81"/><line class="cls-1" x1="2722.44" y1="1.57" x2="2278.8" y2="746.82"/><line class="cls-1" x1="2738.93" y1="1.58" x2="2295.29" y2="746.83"/><line class="cls-1" x1="2755.41" y1="1.59" x2="2311.78" y2="746.84"/><line class="cls-1" x1="2771.9" y1="1.6" x2="2328.26" y2="746.85"/><line class="cls-1" x1="2788.38" y1="1.61" x2="2344.75" y2="746.86"/><line class="cls-1" x1="2804.87" y1="1.62" x2="2361.23" y2="746.87"/><line class="cls-1" x1="2821.35" y1="1.63" x2="2377.72" y2="746.87"/><line class="cls-1" x1="2837.84" y1="1.63" x2="2394.2" y2="746.88"/><line class="cls-1" x1="2854.32" y1="1.64" x2="2410.69" y2="746.89"/><line class="cls-1" x1="2870.81" y1="1.65" x2="2427.17" y2="746.9"/><line class="cls-1" x1="2887.29" y1="1.66" x2="2443.66" y2="746.91"/><line class="cls-1" x1="2903.78" y1="1.67" x2="2460.14" y2="746.92"/><line class="cls-1" x1="2920.27" y1="1.68" x2="2476.63" y2="746.93"/><line class="cls-1" x1="2936.75" y1="1.69" x2="2493.12" y2="746.94"/><line class="cls-1" x1="2953.24" y1="1.69" x2="2509.6" y2="746.94"/><line class="cls-1" x1="2969.72" y1="1.7" x2="2526.09" y2="746.95"/><line class="cls-1" x1="2986.21" y1="1.71" x2="2542.57" y2="746.96"/><line class="cls-1" x1="3002.69" y1="1.72" x2="2559.06" y2="746.97"/><line class="cls-1" x1="3018.4" y1="1.96" x2="2574.76" y2="747.21"/><line class="cls-1" x1="3034.88" y1="1.97" x2="2591.25" y2="747.21"/><line class="cls-1" x1="3051.37" y1="1.97" x2="2607.73" y2="747.22"/><line class="cls-1" x1="3067.86" y1="1.98" x2="2624.22" y2="747.23"/><line class="cls-1" x1="3084.34" y1="1.99" x2="2640.71" y2="747.24"/><line class="cls-1" x1="3100.83" y1="2" x2="2657.19" y2="747.25"/><line class="cls-1" x1="3117.31" y1="2.01" x2="2673.68" y2="747.26"/><line class="cls-1" x1="3133.8" y1="2.02" x2="2690.16" y2="747.27"/><line class="cls-1" x1="3150.28" y1="2.03" x2="2706.65" y2="747.28"/><line class="cls-1" x1="3166.77" y1="2.04" x2="2723.13" y2="747.28"/><line class="cls-1" x1="3183.25" y1="2.04" x2="2739.62" y2="747.29"/><line class="cls-1" x1="3199.74" y1="2.05" x2="2756.1" y2="747.3"/><line class="cls-1" x1="3216.23" y1="2.06" x2="2772.59" y2="747.31"/><line class="cls-1" x1="3232.71" y1="2.07" x2="2789.08" y2="747.32"/><line class="cls-1" x1="3249.2" y1="2.08" x2="2805.56" y2="747.33"/><line class="cls-1" x1="3265.68" y1="2.09" x2="2822.05" y2="747.34"/><line class="cls-1" x1="3282.17" y1="2.1" x2="2838.53" y2="747.34"/><line class="cls-1" x1="3298.65" y1="2.1" x2="2855.02" y2="747.35"/><line class="cls-1" x1="3315.14" y1="2.11" x2="2871.5" y2="747.36"/><line class="cls-1" x1="3331.62" y1="2.12" x2="2887.99" y2="747.37"/><line class="cls-1" x1="3348.11" y1="2.13" x2="2904.47" y2="747.38"/><line class="cls-1" x1="3364.59" y1="2.14" x2="2920.96" y2="747.39"/><line class="cls-1" x1="3381.08" y1="2.15" x2="2937.45" y2="747.4"/><line class="cls-1" x1="3397.57" y1="2.16" x2="2953.93" y2="747.41"/><line class="cls-1" x1="3414.05" y1="2.17" x2="2970.42" y2="747.41"/><line class="cls-1" x1="3430.54" y1="2.17" x2="2986.9" y2="747.42"/><line class="cls-1" x1="3447.02" y1="2.18" x2="3003.39" y2="747.43"/><line class="cls-1" x1="3463.51" y1="2.19" x2="3019.87" y2="747.44"/><line class="cls-1" x1="3479.99" y1="2.2" x2="3036.36" y2="747.45"/><line class="cls-1" x1="3496.48" y1="2.21" x2="3052.84" y2="747.46"/><line class="cls-1" x1="3512.96" y1="2.22" x2="3069.33" y2="747.47"/><line class="cls-1" x1="3529.45" y1="2.23" x2="3085.81" y2="747.47"/><line class="cls-1" x1="3545.94" y1="2.23" x2="3102.3" y2="747.48"/><line class="cls-1" x1="3562.42" y1="2.24" x2="3118.79" y2="747.49"/><line class="cls-1" x1="3578.91" y1="2.25" x2="3135.27" y2="747.5"/><line class="cls-1" x1="3595.39" y1="2.26" x2="3151.76" y2="747.51"/><line class="cls-1" x1="3611.88" y1="2.27" x2="3168.24" y2="747.52"/><line class="cls-1" x1="3628.36" y1="2.28" x2="3184.73" y2="747.53"/><line class="cls-1" x1="3644.85" y1="2.29" x2="3201.21" y2="747.54"/><line class="cls-1" x1="3661.33" y1="2.3" x2="3217.7" y2="747.54"/><line class="cls-1" x1="3677.82" y1="2.3" x2="3234.18" y2="747.55"/><line class="cls-1" x1="3694.31" y1="2.31" x2="3250.67" y2="747.56"/><line class="cls-1" x1="3710.79" y1="2.32" x2="3267.16" y2="747.57"/><line class="cls-1" x1="3727.28" y1="2.33" x2="3283.64" y2="747.58"/><line class="cls-1" x1="3743.76" y1="2.34" x2="3300.13" y2="747.59"/><line class="cls-1" x1="3760.25" y1="2.35" x2="3316.61" y2="747.6"/><line class="cls-1" x1="3776.73" y1="2.36" x2="3333.1" y2="747.61"/><line class="cls-1" x1="3793.22" y1="2.36" x2="3349.58" y2="747.61"/><line class="cls-1" x1="3809.7" y1="2.37" x2="3366.07" y2="747.62"/><line class="cls-1" x1="3826.19" y1="2.38" x2="3382.55" y2="747.63"/><line class="cls-1" x1="3842.67" y1="2.39" x2="3399.04" y2="747.64"/><line class="cls-1" x1="3859.16" y1="2.4" x2="3415.52" y2="747.65"/><line class="cls-1" x1="3875.97" y1="2.2" x2="3432.34" y2="747.45"/><line class="cls-1" x1="3892.46" y1="2.21" x2="3448.82" y2="747.46"/><line class="cls-1" x1="3908.94" y1="2.22" x2="3465.31" y2="747.47"/><line class="cls-1" x1="3925.43" y1="2.23" x2="3481.79" y2="747.48"/><line class="cls-1" x1="3941.92" y1="2.24" x2="3498.28" y2="747.49"/><line class="cls-1" x1="3958.4" y1="2.25" x2="3514.77" y2="747.49"/><line class="cls-1" x1="3974.89" y1="2.25" x2="3531.25" y2="747.5"/><line class="cls-1" x1="3991.37" y1="2.26" x2="3547.74" y2="747.51"/><line class="cls-1" x1="4007.86" y1="2.27" x2="3564.22" y2="747.52"/><line class="cls-1" x1="4024.34" y1="2.28" x2="3580.71" y2="747.53"/><line class="cls-1" x1="4040.83" y1="2.29" x2="3597.19" y2="747.54"/><line class="cls-1" x1="4057.31" y1="2.3" x2="3613.68" y2="747.55"/><line class="cls-1" x1="4073.8" y1="2.31" x2="3630.16" y2="747.56"/><line class="cls-1" x1="4090.29" y1="2.31" x2="3646.65" y2="747.56"/><line class="cls-1" x1="4106.77" y1="2.32" x2="3663.14" y2="747.57"/><line class="cls-1" x1="4123.26" y1="2.33" x2="3679.62" y2="747.58"/><line class="cls-1" x1="4139.74" y1="2.34" x2="3696.11" y2="747.59"/><line class="cls-1" x1="4156.23" y1="2.35" x2="3712.59" y2="747.6"/><line class="cls-1" x1="4172.71" y1="2.36" x2="3729.08" y2="747.61"/><line class="cls-1" x1="4189.2" y1="2.37" x2="3745.56" y2="747.62"/><line class="cls-1" x1="4205.68" y1="2.38" x2="3762.05" y2="747.62"/><line class="cls-1" x1="4222.17" y1="2.38" x2="3778.53" y2="747.63"/><line class="cls-1" x1="4238.65" y1="2.39" x2="3795.02" y2="747.64"/><line class="cls-1" x1="4255.14" y1="2.4" x2="3811.5" y2="747.65"/><line class="cls-1" x1="4271.63" y1="2.41" x2="3827.99" y2="747.66"/><line class="cls-1" x1="4288.11" y1="2.42" x2="3844.48" y2="747.67"/><line class="cls-1" x1="4304.6" y1="2.43" x2="3860.96" y2="747.68"/><line class="cls-1" x1="4321.08" y1="2.44" x2="3877.45" y2="747.69"/><line class="cls-1" x1="4337.57" y1="2.44" x2="3893.93" y2="747.69"/><line class="cls-1" x1="4354.05" y1="2.45" x2="3910.42" y2="747.7"/><line class="cls-1" x1="4370.54" y1="2.46" x2="3926.9" y2="747.71"/><line class="cls-1" x1="4387.02" y1="2.47" x2="3943.39" y2="747.72"/><line class="cls-1" x1="4403.51" y1="2.48" x2="3959.87" y2="747.73"/><line class="cls-1" x1="4420" y1="2.49" x2="3976.36" y2="747.74"/><line class="cls-1" x1="4436.48" y1="2.5" x2="3992.85" y2="747.75"/><line class="cls-1" x1="4452.97" y1="2.51" x2="4009.33" y2="747.75"/><line class="cls-1" x1="4469.45" y1="2.51" x2="4025.82" y2="747.76"/><line class="cls-1" x1="4485.94" y1="2.52" x2="4042.3" y2="747.77"/><line class="cls-1" x1="4502.42" y1="2.53" x2="4058.79" y2="747.78"/><line class="cls-1" x1="4518.91" y1="2.54" x2="4075.27" y2="747.79"/><line class="cls-1" x1="4535.39" y1="2.55" x2="4091.76" y2="747.8"/><line class="cls-1" x1="4551.88" y1="2.56" x2="4108.24" y2="747.81"/><line class="cls-1" x1="4568.36" y1="2.57" x2="4124.73" y2="747.82"/><line class="cls-1" x1="4584.85" y1="2.57" x2="4141.22" y2="747.82"/><line class="cls-1" x1="4601.34" y1="2.58" x2="4157.7" y2="747.83"/><line class="cls-1" x1="4617.82" y1="2.59" x2="4174.19" y2="747.84"/><line class="cls-1" x1="4634.31" y1="2.6" x2="4190.67" y2="747.85"/><line class="cls-1" x1="4650.79" y1="2.61" x2="4207.16" y2="747.86"/><line class="cls-1" x1="4667.28" y1="2.62" x2="4223.64" y2="747.87"/><line class="cls-1" x1="4683.76" y1="2.63" x2="4240.13" y2="747.88"/><line class="cls-1" x1="4700.25" y1="2.64" x2="4256.61" y2="747.88"/><line class="cls-1" x1="4716.73" y1="2.64" x2="4273.1" y2="747.89"/><line class="cls-1" x1="4733.55" y1="1.71" x2="4289.91" y2="746.96"/><line class="cls-1" x1="4750.03" y1="1.72" x2="4306.4" y2="746.97"/><line class="cls-1" x1="4766.52" y1="1.73" x2="4322.88" y2="746.98"/><line class="cls-1" x1="4783" y1="1.74" x2="4339.37" y2="746.99"/><line class="cls-1" x1="4799.49" y1="1.75" x2="4355.85" y2="747"/><line class="cls-1" x1="4815.98" y1="1.76" x2="4372.34" y2="747"/><line class="cls-1" x1="4832.46" y1="1.76" x2="4388.83" y2="747.01"/><line class="cls-1" x1="4848.95" y1="1.77" x2="4405.31" y2="747.02"/><line class="cls-1" x1="4865.43" y1="1.78" x2="4421.8" y2="747.03"/><line class="cls-1" x1="4881.92" y1="1.79" x2="4438.28" y2="747.04"/><line class="cls-1" x1="4898.4" y1="1.8" x2="4454.77" y2="747.05"/><line class="cls-1" x1="4914.89" y1="1.81" x2="4471.25" y2="747.06"/><line class="cls-1" x1="4931.37" y1="1.82" x2="4487.74" y2="747.07"/><line class="cls-1" x1="4947.86" y1="1.83" x2="4504.22" y2="747.07"/><line class="cls-1" x1="4964.34" y1="1.83" x2="4520.71" y2="747.08"/><line class="cls-1" x1="4980.83" y1="1.84" x2="4537.19" y2="747.09"/><line class="cls-1" x1="4997.32" y1="1.85" x2="4553.68" y2="747.1"/><line class="cls-1" x1="5013.8" y1="1.86" x2="4570.17" y2="747.11"/><line class="cls-1" x1="5030.29" y1="1.87" x2="4586.65" y2="747.12"/><line class="cls-1" x1="5046.77" y1="1.88" x2="4603.14" y2="747.13"/><line class="cls-1" x1="5063.26" y1="1.89" x2="4619.62" y2="747.13"/><line class="cls-1" x1="5079.74" y1="1.89" x2="4636.11" y2="747.14"/><line class="cls-1" x1="5096.23" y1="1.9" x2="4652.59" y2="747.15"/><line class="cls-1" x1="5112.71" y1="1.91" x2="4669.08" y2="747.16"/><line class="cls-1" x1="5129.2" y1="1.92" x2="4685.56" y2="747.17"/><line class="cls-1" x1="5145.69" y1="1.93" x2="4702.05" y2="747.18"/><line class="cls-1" x1="5162.17" y1="1.94" x2="4718.54" y2="747.19"/><line class="cls-1" x1="5178.66" y1="1.95" x2="4735.02" y2="747.2"/><line class="cls-1" x1="5195.14" y1="1.96" x2="4751.51" y2="747.2"/><line class="cls-1" x1="5211.63" y1="1.96" x2="4767.99" y2="747.21"/><line class="cls-1" x1="5228.11" y1="1.97" x2="4784.48" y2="747.22"/><line class="cls-1" x1="5244.6" y1="1.98" x2="4800.96" y2="747.23"/><line class="cls-1" x1="5261.08" y1="1.99" x2="4817.45" y2="747.24"/><line class="cls-1" x1="5277.57" y1="2" x2="4833.93" y2="747.25"/><line class="cls-1" x1="5294.06" y1="2.01" x2="4850.42" y2="747.26"/><line class="cls-1" x1="5310.54" y1="2.02" x2="4866.91" y2="747.26"/><line class="cls-1" x1="5327.03" y1="2.02" x2="4883.39" y2="747.27"/><line class="cls-1" x1="5343.51" y1="2.03" x2="4899.88" y2="747.28"/><line class="cls-1" x1="5360" y1="2.04" x2="4916.36" y2="747.29"/><line class="cls-1" x1="5376.48" y1="2.05" x2="4932.85" y2="747.3"/><line class="cls-1" x1="5392.97" y1="2.06" x2="4949.33" y2="747.31"/><line class="cls-1" x1="5409.45" y1="2.07" x2="4965.82" y2="747.32"/><line class="cls-1" x1="5425.94" y1="2.08" x2="4982.3" y2="747.33"/><line class="cls-1" x1="5442.42" y1="2.09" x2="4998.79" y2="747.33"/><line class="cls-1" x1="5458.91" y1="2.09" x2="5015.27" y2="747.34"/><line class="cls-1" x1="5475.4" y1="2.1" x2="5031.76" y2="747.35"/><line class="cls-1" x1="5491.88" y1="2.11" x2="5048.25" y2="747.36"/><line class="cls-1" x1="5508.37" y1="2.12" x2="5064.73" y2="747.37"/><line class="cls-1" x1="5524.85" y1="2.13" x2="5081.22" y2="747.38"/><line class="cls-1" x1="5541.34" y1="2.14" x2="5097.7" y2="747.39"/><line class="cls-1" x1="5557.82" y1="2.15" x2="5114.19" y2="747.39"/><line class="cls-1" x1="5574.31" y1="2.15" x2="5130.67" y2="747.4"/></svg>