<svg id="Calque_1" data-name="Calque 1" xmlns="http://www.w3.org/2000/svg" viewBox="0 0 176.53 261"><path d="M729.09,406.87a8,8,0,0,1,1.51-4.55A8,8,0,0,1,729.09,406.87Z" transform="translate(-554.07 -294.45)"/><path d="M696,326.93a104.2,104.2,0,0,1,15.88,1,5,5,0,0,1,3.5,2.05,72.93,72.93,0,0,1,12.13,23.24c.14.48.22,1,.34,1.46.38,1.53-.21,1.72-1.54,1.24a127.09,127.09,0,0,0-23.82-6.15,3.2,3.2,0,0,1-2.55-2.07c-3.24-7-7.88-13-13-18.72-.41-.45-1.26-.84-.94-1.57s1.19-.43,1.81-.44C690.48,326.9,693.22,326.93,696,326.93Z" transform="translate(-554.07 -294.45)"/><path d="M680.44,327.4a4,4,0,0,1,4,1.48c5,5.39,9.59,11,13,17.59.33.64,1,1.35.48,2s-1.4.33-2.11.23a112.39,112.39,0,0,0-21.61-.87,3.79,3.79,0,0,1-4-2.21c-2.56-4.37-5.31-8.63-8.11-12.86-.87-1.32-.66-1.76.78-2.18A101.33,101.33,0,0,1,680.44,327.4Z" transform="translate(-554.07 -294.45)"/><path d="M728.92,359c.61,6.09,1.49,12.16.7,18.33-.26,2.06-.69,2.69-2.53,1.49a63.56,63.56,0,0,0-16.62-10.33c-2.64-1.2-5.38-2.17-8.07-3.27-.92-.37-2-.65-1.34-2.08,1.51-3.16,1.31-6.46.74-9.77-.21-1.21-.14-2.08,1.37-1.79C712,353.23,720.74,355.11,728.92,359Z" transform="translate(-554.07 -294.45)"/><path d="M677.1,505.6c-.13-.89.47-1.34,1-1.87A109.74,109.74,0,0,0,688.56,493c1.37-1.7,2-1.39,2.74.54,2.39,6.55,4.87,13.06,7.35,19.58a2.59,2.59,0,0,1-.27,2.56,45.06,45.06,0,0,1-11.75,12.4c-1.1.79-1.74.72-2.23-.57-2.63-6.91-5.09-13.87-7.14-21A8.33,8.33,0,0,1,677.1,505.6Z" transform="translate(-554.07 -294.45)"/><path d="M661,517.18c0-.27.43-.83,1.06-1.29q6-4.44,12-8.87c.84-.62,1.34-.32,1.63.62,2.2,7.13,4.6,14.19,7.29,21.16.48,1.24-.18,1.89-1.15,2.36-4,2-8.06,3.9-12.09,5.86-.84.41-1.59.63-2-.5q-3.28-9.12-6.54-18.25A10,10,0,0,1,661,517.18Z" transform="translate(-554.07 -294.45)"/><path d="M674.49,503.69c.07,1-.69,1.49-1.33,2-3.75,2.75-7.55,5.42-11.28,8.19-1.45,1.07-2.15.7-2.72-.88-1.81-5.08-3.46-10.23-6.56-14.76-1-1.43-.35-2.63,1-3.62a116.23,116.23,0,0,1,11.76-7.48c4.83-2.77,4.8-2.77,6,2.76.86,3.89,1.81,7.75,2.71,11.63C674.21,502.22,674.34,503,674.49,503.69Z" transform="translate(-554.07 -294.45)"/><path d="M712.17,326c-3.43-.24-6.23-.44-9-.62a104.6,104.6,0,0,0-17.16,0,4.5,4.5,0,0,1-3.8-1.33c-3.35-3.23-6.78-6.37-10.15-9.56-.28-.26-.62-.71-.56-1,.14-.71.91-.67,1.43-.74,3.28-.42,6.58-.81,9.88-1.14,2.31-.23,4.64-.24,6.94-.53a11.76,11.76,0,0,1,10,3.13C703.81,317.88,708.3,321.15,712.17,326Z" transform="translate(-554.07 -294.45)"/><path d="M653.18,300a77.72,77.72,0,0,1,12.19-2.39c2.94-.3,5.53.74,8.19,1.74a89.8,89.8,0,0,1,16,7.94c.66.41,1.58.63,1.77,1.73-2.07.81-4.26.36-6.36.63-4.86.63-9.73,1.16-14.58,1.76a3.93,3.93,0,0,1-3.17-1c-4.75-3.84-9.91-6.9-16.09-7.84l-.28-.21c-.42-.73-.65-1.34.51-1.63A6.32,6.32,0,0,0,653.18,300Z" transform="translate(-554.07 -294.45)"/><path d="M672.12,484.35a2.39,2.39,0,0,1,.88-2.2q5.12-3.94,10.14-8c1.26-1,1.84-1,2.19.77a113,113,0,0,0,3.89,12.84,2.31,2.31,0,0,1-.48,2.48,117.1,117.1,0,0,1-10.85,11.31c-.61.57-1.45,1.69-2,0A151,151,0,0,1,672.12,484.35Z" transform="translate(-554.07 -294.45)"/><path d="M681,349.46c5.23-.27,10.58.72,16,1a2.75,2.75,0,0,1,2.85,2,14.19,14.19,0,0,1-.27,9.76,1.76,1.76,0,0,1-2.51,1.18,112.55,112.55,0,0,0-19.47-4.1,2.15,2.15,0,0,1-2-1.6c-.76-2.1-1.52-4.22-2.44-6.26-.78-1.7-.1-2,1.43-2C676.69,349.5,678.77,349.46,681,349.46Z" transform="translate(-554.07 -294.45)"/><path d="M660.64,329.39c-.86.16-1.46-.59-2-1.35a37.67,37.67,0,0,0-7.81-8.33c-1.17-.95-1.32-1.66.35-2.14a118.07,118.07,0,0,1,16-3.75,2.21,2.21,0,0,1,2.06.49c3.47,3.22,7,6.41,10.45,9.62,1,.91,1.19,1.76-.49,1.91a91.65,91.65,0,0,0-17.83,3.44A5.81,5.81,0,0,1,660.64,329.39Z" transform="translate(-554.07 -294.45)"/><path d="M653.68,543c-1.48-5.27-2.9-10.55-4.49-15.78a2.74,2.74,0,0,1,1.42-3.66c2.26-1.37,4.45-2.88,6.63-4.39,1.33-.92,2.21-.91,2.81.79q2.94,8.46,6,16.88c.46,1.27.23,1.9-1.11,2.42-3.69,1.44-7.13,3.59-11.24,3.75Z" transform="translate(-554.07 -294.45)"/><path d="M701.53,381.32a18.35,18.35,0,0,0-7.16,10.43c-.86,3.39-2.69,6.39-4.31,9.46-1.88,1.59-2.59,4.15-4.84,5.93-.23-3.95,0-7.59-.52-11.17a8.27,8.27,0,0,0-.21-2c-1.84-4.23-.06-7.37,2.72-10.45a89,89,0,0,0,6.6-8.4c1.13-1.59,1.92-1.41,3.08-.17C698.69,376.91,700.61,378.75,701.53,381.32Z" transform="translate(-554.07 -294.45)"/><path d="M648.64,303.05c5.66,1.7,11.19,3.67,15.92,7.38.51.41,1.14.7,1.31,1.62-3.83.95-7.81,1.52-11.45,2.95-4.88,1.92-8.9,1.41-12.92-2-1.83-1.57-4.4-2.28-6.64-3.35-.51-.25-1.3-.26-1.37-.9s.62-.94,1.14-1.2c3-1.51,6.09-3,9.13-4.5C645.39,301.26,647,301.89,648.64,303.05Z" transform="translate(-554.07 -294.45)"/><path d="M635.66,444.4c1.45-5.79,2.73-10.84,4-15.91a3.38,3.38,0,0,1,1.73-2q5.79-3.64,11.61-7.25c.54-.34,1.13-1,1.78-.65s.24,1.19.12,1.8a95.43,95.43,0,0,1-3.83,14.68c-.28.78-.43,1.63-1.22,2.11A131.89,131.89,0,0,1,635.66,444.4Z" transform="translate(-554.07 -294.45)"/><path d="M674.23,370.37q1-4,2.06-7.94c.27-1.05,1-.7,1.55-.42a79.64,79.64,0,0,1,14.75,9.23,1.36,1.36,0,0,1,.26,2.27q-4.43,5.55-8.73,11.19c-1,1.26-1.42,1.07-1.9-.32-1.55-4.53-3.68-8.73-7.31-12A1.94,1.94,0,0,1,674.23,370.37Z" transform="translate(-554.07 -294.45)"/><path d="M642.11,505.25c.08-.32.07-.81.31-1.09a50.08,50.08,0,0,1,7.05-6.28c.76-.59,1.11.21,1.49.78,3.22,4.92,5,10.48,7.1,15.9a1.93,1.93,0,0,1-.9,2.55c-2.43,1.59-4.81,3.26-7.19,4.93-1.28.89-2.12.67-2.62-.84q-2.48-7.46-5-14.89C642.29,506,642.22,505.67,642.11,505.25Z" transform="translate(-554.07 -294.45)"/><path d="M682.11,411.74c-4,3.47-7.16,7.79-11.94,11.05.42-4.69,1.1-8.94,1.12-13.2,0-6.41,5.27-10,7.6-15.19.57-1.25,1.68-2.24,2.87-3.77,2,6.2,1.64,12.22,1.83,18.16A2,2,0,0,1,682.11,411.74Z" transform="translate(-554.07 -294.45)"/><path d="M674.75,551c-1.54.23-2-.23-2.33-1-1-2.88-2-5.76-3.08-8.65-.49-1.37.11-2.21,1.31-2.79,4-2,8-3.93,12-6,1.1-.56,1.67-.26,2.12.78,1.26,3,2.56,5.93,3.81,8.9.33.77.58,1.56-.4,2.17a69.44,69.44,0,0,1-13.36,6.53C674.61,551,674.36,551,674.75,551Z" transform="translate(-554.07 -294.45)"/><path d="M704.1,527.07a3.06,3.06,0,0,1-.67,2.46,52.08,52.08,0,0,1-10.94,11.82c-1.33,1.1-2,.65-2.63-.69l-3.54-8.23a1.94,1.94,0,0,1,.82-2.58,46.06,46.06,0,0,0,11.56-11.53c.89-1.29,1.49-1.26,2.07.36C701.85,521.72,703.14,524.68,704.1,527.07Z" transform="translate(-554.07 -294.45)"/><path d="M668.11,431.2c.27-3.64,2.15-6.14,5-8.4,3.34-2.66,6.22-5.89,9.69-9.26a66.23,66.23,0,0,1-1.3,10.38,25.54,25.54,0,0,0-.56,2.68c-.31,7-4.8,10.88-10.52,13.75a25.57,25.57,0,0,0-3.75,2.38c-1.95.73-1.95-.32-1.5-1.69A91.88,91.88,0,0,0,668.11,431.2Z" transform="translate(-554.07 -294.45)"/><path d="M656.55,405.7a16,16,0,0,0-.24,1.92c-.29,9.25.36,7.1-7.52,12.33-2,1.32-4.06,2.56-6.11,3.81-.54.33-1.15.95-1.78.49s-.24-1.1-.14-1.66a100.4,100.4,0,0,0,1.46-11.32,3.13,3.13,0,0,1,1.46-2.21c3.68-3.1,7.32-6.23,10.68-9.68.34-.35.69-.87,1.22-.71s.55.78.59,1.27C656.3,401.76,656.41,403.58,656.55,405.7Z" transform="translate(-554.07 -294.45)"/><path d="M653.16,434.85c1.61-6.18,3.3-11.82,4.08-17.66a2.64,2.64,0,0,1,1.28-1.75q4.58-3.45,9.13-6.9c.46-.35.86-.9,1.51-.62s.5,1,.47,1.53A77.59,77.59,0,0,1,667.84,424a3.51,3.51,0,0,1-1.27,2.05,122.69,122.69,0,0,1-11.83,8.26A9.18,9.18,0,0,1,653.16,434.85Z" transform="translate(-554.07 -294.45)"/><path d="M595.85,410.25c-2.19-.87-2.85-2.38-2.32-4.7a15.4,15.4,0,0,0,.18-4.45c-.14-2.12.86-2.59,2.7-2.27a134.94,134.94,0,0,0,15.24,2,1.45,1.45,0,0,1,1.56,1.76c-.09,1.32-.24,2.63-.33,3.95-.46,6.67-.32,5.87-6.85,5.69-3.5-.1-6.79-1.38-10.2-2Z" transform="translate(-554.07 -294.45)"/><path d="M677.37,438.06c-1.21,4.2-3.13,7.28-4.17,10.64-1.37,4.38-4.46,6.94-8.07,9.23a117.72,117.72,0,0,1-14.8,8.32,9.68,9.68,0,0,1,2.81-5.18,43.75,43.75,0,0,0,8.58-12.41,3.81,3.81,0,0,1,1.13-1.59C667.46,444.15,672.11,441.31,677.37,438.06Z" transform="translate(-554.07 -294.45)"/><path d="M681.15,386.86a3.72,3.72,0,0,1-.85,2.9,52,52,0,0,0-6.59,9.94c-.42.79-.92,1.92-1.87,1.77s-.63-1.38-.71-2.15a39.24,39.24,0,0,0-3.45-12.15c-.54-1.22-.77-2.33.11-3.49a47.47,47.47,0,0,0,4.71-8.48c.41-.86.84-1.86,2-.78A25.5,25.5,0,0,1,681.15,386.86Z" transform="translate(-554.07 -294.45)"/><path d="M646.16,451.67a114.94,114.94,0,0,0,5.49-12.75,4.05,4.05,0,0,1,1.9-1.89c3.74-2.45,7.47-4.93,11.22-7.38.46-.3.88-1,1.5-.64s.31,1.05.18,1.58a81.61,81.61,0,0,1-4.88,14.34,4.82,4.82,0,0,1-2.05,2.07c-3.82,2.3-7.86,4.17-11.83,6.2C646.08,453.79,645.7,453.16,646.16,451.67Z" transform="translate(-554.07 -294.45)"/><path d="M657.16,349.77a1.62,1.62,0,0,1-2-1.17,68.79,68.79,0,0,0-5.29-11c-.67-1.11-.61-2.06.72-2.6,2.38-1,4.76-1.94,7.16-2.86a1.75,1.75,0,0,1,2.34.78c2.76,4.32,5.83,8.43,8.3,12.93.9,1.64.77,2.35-1.26,2.52A62.53,62.53,0,0,0,657.16,349.77Z" transform="translate(-554.07 -294.45)"/><path d="M669.66,402.81a3,3,0,0,1-1.28,2.9c-2.94,2.3-5.85,4.64-8.8,6.94a2,2,0,0,1-1.31.5c-.63-.11-.49-.78-.43-1.25a55.34,55.34,0,0,0-.14-13.67,4.12,4.12,0,0,1,1.21-3.59c1.82-1.93,3.52-4,5.22-6,1.22-1.48,1.82-1.11,2.54.49A38.34,38.34,0,0,1,669.66,402.81Z" transform="translate(-554.07 -294.45)"/><path d="M658.52,449.6a18.05,18.05,0,0,1-5.27,8.77,20.87,20.87,0,0,0-4.83,7.45,4,4,0,0,1-2.46,2.56c-3.34,1.22-6.66,2.53-10,3.76-.48.18-1.09.7-1.57.07-.33-.43,0-.94.18-1.41,1-2.67,2.7-4.91,4.11-7.34a23.39,23.39,0,0,1,12.15-10C653.49,452.41,656,450.9,658.52,449.6Z" transform="translate(-554.07 -294.45)"/><path d="M607.76,450.63c3,.18,6,.85,9.09.64,1.42-.1,1.46.66,1.07,1.73a85.22,85.22,0,0,1-4.4,9.44,2.16,2.16,0,0,1-2.06,1.13c-3.47.14-6.94.29-10.41.5-2.15.14-2.41-.76-1.62-2.52,1.4-3.09,2.8-6.18,4-9.34C604.36,450,606.18,450.85,607.76,450.63Z" transform="translate(-554.07 -294.45)"/><path d="M721.06,378.86c-3.63-.93-7.27-1.56-11-.56a13.27,13.27,0,0,0-5,1.21,2.08,2.08,0,0,1-2.79-.76c-1.48-1.88-3-3.74-4.65-5.48-1-1-1.23-1.84-.4-3,3.2-4.6,1.79-4.66,7.24-2.51,7.19,2.83,14.09,6.19,20.07,11.2.57,1.24-.17,1.29-1,1S721.87,379.23,721.06,378.86Z" transform="translate(-554.07 -294.45)"/><path d="M685.59,457.67c-4.22,1.56-7.89,4.2-12,6.06-2.5,1.14-2.49,1-2.48-1.84,0-5.69,3.07-9.36,7.46-12.34a53,53,0,0,1,8.65-4.9c.84-.36,1.9-1.13,2.34.53-1,2.38-.58,5-1.34,7.41-.69,1.71-.39,3.87-2.29,5Z" transform="translate(-554.07 -294.45)"/><path d="M669.1,472.63c.62,2.06-.53,3.35-2.41,4.57-4.94,3.21-9.85,6.43-15,9.28-2,1.13-2.7.89-3-1.35-.94-7.69-1.42-6.12,4.68-9.15,4.3-2.14,8.56-4.37,12.84-6.56,2.7-1.38,2.78-1.33,2.86,1.69C669.11,471.53,669.1,471.94,669.1,472.63Z" transform="translate(-554.07 -294.45)"/><path d="M623.3,448.67c-1.7.21-1.88-.47-1.55-1.61a54.49,54.49,0,0,0,2.06-10.74,2.53,2.53,0,0,1,2-2.33,58,58,0,0,0,9.81-4.24c.49-.25,1-.75,1.62-.36s.19,1.07.08,1.6c-.94,4.38-2.18,8.68-3.51,13a2.62,2.62,0,0,1-1.32,1.73A41.49,41.49,0,0,1,623.3,448.67Z" transform="translate(-554.07 -294.45)"/><path d="M640.27,414.73c-.54,3.3-1.11,6.81-1.68,10.33a2.62,2.62,0,0,1-1.46,1.9,60.86,60.86,0,0,1-10.56,5c-1.55.51-2,0-1.8-1.42.51-3.36,1-6.71,1.58-10.05.18-1.06,1.17-1.35,2-1.73a70,70,0,0,0,9.71-5.53c.53-.36,1.11-1,1.76-.69C640.63,412.89,640.1,413.82,640.27,414.73Z" transform="translate(-554.07 -294.45)"/><path d="M615.19,449.72c-2.86-.31-5.82-.66-8.78-1-1.13-.12-1.13-.77-.85-1.58,1.08-3.13,2.18-6.27,3.28-9.39a1.71,1.71,0,0,1,1.75-1.14,60.63,60.63,0,0,0,10.15-.85c1.15-.24,1.5.39,1.34,1.43a73.43,73.43,0,0,1-2.34,10.68C619,450.27,616.87,449.25,615.19,449.72Z" transform="translate(-554.07 -294.45)"/><path d="M642.61,407.5a87.59,87.59,0,0,0-.38-11,1.77,1.77,0,0,1,0-1c2.29-3.83,4.58-7.65,6.94-11.43.56-.89,1.21-.57,1.74.2a25.14,25.14,0,0,1,4.26,10.22,2.1,2.1,0,0,1-.4,1.88A93.17,93.17,0,0,1,642.61,407.5Z" transform="translate(-554.07 -294.45)"/><path d="M649.39,439.64a91.37,91.37,0,0,1-6.83,15.18,2.42,2.42,0,0,1-1,1.07,63.22,63.22,0,0,1-11,3.82,4.32,4.32,0,0,1-1.18-.17,69.78,69.78,0,0,0,5-11.8,2,2,0,0,1,.88-1.16C639.74,444.33,644.27,442.14,649.39,439.64Z" transform="translate(-554.07 -294.45)"/><path d="M648.27,473.24c-.13-2.68,1.12-4.75,4.32-6.14a94.23,94.23,0,0,0,15.24-8.91c.59-.4,1.15-1.3,1.91-.79s.07,1.37,0,2.06a11.78,11.78,0,0,0-.38,2.7c.53,3.57-1.69,4.88-4.43,6.15-4.83,2.23-9.52,4.74-14.29,7.09C648.31,476.54,648.17,476.42,648.27,473.24Z" transform="translate(-554.07 -294.45)"/><path d="M655.69,544.47c3.26-.45,6.15-1.93,9.06-3.29,1.78-.82,2.68-.64,3.25,1.38.78,2.7,1.79,5.34,2.78,8,.43,1.16.05,1.68-1,2a72,72,0,0,1-11.46,2.19c-.64.08-1.24,0-1.43-.64-.81-2.78-1.86-5.51-2.09-8.42,0-.35.33-.73.51-1.1A.27.27,0,0,1,655.69,544.47Z" transform="translate(-554.07 -294.45)"/><path d="M621.25,342.46l-.19-.09h-.21a1.72,1.72,0,0,1-.77-2.51,29.06,29.06,0,0,1,4.87-7.49,2,2,0,0,1,3-.32,79,79,0,0,1,8.7,7.43c.81.83,1,1.44,0,2.2-.73.55-1.41,1.17-2.09,1.77-4.21,3.68-4.21,3.68-9.09,1A14,14,0,0,0,621.25,342.46Z" transform="translate(-554.07 -294.45)"/><path d="M641.71,543a91.77,91.77,0,0,0-2.28-11.41c-.41-1.86,0-2.78,1.9-3.17a10.57,10.57,0,0,0,3.2-1.3c1.83-1.07,2.84-.74,3.4,1.39,1.19,4.47,2.51,8.91,3.78,13.36.23.8.62,1.92-.59,2-3.15.1-6.42,1.16-9.4-.82Z" transform="translate(-554.07 -294.45)"/><path d="M657.52,329.54c.15,1-.6,1-1.08,1.2-2.28,1-4.59,1.91-6.85,2.93A1.82,1.82,0,0,1,647,333a54.88,54.88,0,0,0-7.61-8.84c-.94-.85-1-1.57.17-2.09,2.19-1,4.42-1.89,6.64-2.8a1.73,1.73,0,0,1,1.86.31,49.45,49.45,0,0,1,8.88,9A8.61,8.61,0,0,1,657.52,329.54Z" transform="translate(-554.07 -294.45)"/><path d="M614.57,434.79c-4.65,0-4.72,0-3.85-3.89.55-2.49.13-5.61,1.82-7.32s4.69-1.15,7.07-1.79l.25,0c4.52-1,4.53-1,3.85,3.79-.3,2-.71,4.09-.88,6.15A2.35,2.35,0,0,1,620.7,434,22.77,22.77,0,0,1,614.57,434.79Z" transform="translate(-554.07 -294.45)"/><path d="M618.13,340.88c-2.86,1-5.88.64-8.81,1-1.47.17-.93-1.25-.77-2.05A37.78,37.78,0,0,1,613.79,327a15,15,0,0,1,9.27,2.09c1.37.75,1.37,1.34.4,2.41A21.59,21.59,0,0,0,618.13,340.88Z" transform="translate(-554.07 -294.45)"/><path d="M665.76,382.66a9.49,9.49,0,0,1-1-1.24,47.76,47.76,0,0,0-5.86-8c-.46-.51-.95-1.06-.7-1.75a19.65,19.65,0,0,0,1-7.09c0-1.42.92-1.43,1.86-1a33.78,33.78,0,0,1,10.06,7.57,1.67,1.67,0,0,1,.39,1.84,35.36,35.36,0,0,1-4.66,9A1.17,1.17,0,0,1,665.76,382.66Z" transform="translate(-554.07 -294.45)"/><path d="M597.39,466.23l.42-.52c4-.15,8,.18,12-.41,1.57-.23,2.23.13,1.32,1.83a49.09,49.09,0,0,0-4.28,9.53c-.31,1.11-1,1.22-1.9,1.07q-4.41-.75-8.81-1.61c-1.56-.3-1.39-1.53-1.09-2.56C595.71,471.09,596.58,468.67,597.39,466.23Z" transform="translate(-554.07 -294.45)"/><path d="M634.24,510.61a25.19,25.19,0,0,0,4.91-3.74c.88-.77,1.47-.66,1.83.41q2.6,7.74,5.13,15.52a1.6,1.6,0,0,1-.88,2.07l-3.05,1.62c-3.32,1.53-3.4,1.51-4.81-.93a3.27,3.27,0,0,1-.29-.73c-.9-3.87-2-7.69-3-11.53a3.19,3.19,0,0,1-.12-2.41Z" transform="translate(-554.07 -294.45)"/><path d="M646.18,335.1c-2,1.31-4,2.66-6,4-.79.52-1.38.07-1.95-.48-1.37-1.32-2.71-2.68-4.16-3.91a61.44,61.44,0,0,0-4.9-3.78c-1.19-.82-1.4-1.52-.16-2.4,1.89-1.33,3.78-2.67,5.69-4a2.1,2.1,0,0,1,2.75.08,48.75,48.75,0,0,1,8.21,9.24A8.09,8.09,0,0,1,646.18,335.1Z" transform="translate(-554.07 -294.45)"/><path d="M626.21,300l6-3.46a63.22,63.22,0,0,1,29.82-.62c-4.35,1.59-8.42,1.77-12,3.5a3.06,3.06,0,0,1-2.13,1.29c-2,.82-4.06.53-6.11.53-4.46,0-8.93-.24-13.35.65a4.15,4.15,0,0,1-2-.09c-.45-.13-1.17.1-1.28-.49S625.74,300.35,626.21,300Z" transform="translate(-554.07 -294.45)"/><path d="M630.27,404.94c2.88-2.22,5.76-4.45,8.65-6.65.38-.29.89-.73,1.25-.66.75.14.52.92.54,1.46a26.31,26.31,0,0,0,.09,4c1,5.1-1.57,8.05-5.81,10.15-2.48,1.23-4.68,3-7.53,3.83-.37-3.05,1.44-5.49,1.31-8.24C628.45,407.2,628.41,405.7,630.27,404.94Z" transform="translate(-554.07 -294.45)"/><path d="M657,374.14a12.8,12.8,0,0,1,1,.95,51.88,51.88,0,0,1,5.89,8.29,2.37,2.37,0,0,1-.24,3.14c-1.87,2.1-3.67,4.27-5.51,6.4-.7.81-1.25.76-1.53-.33a31.66,31.66,0,0,0-4.93-10.25,2.42,2.42,0,0,1-.42-.89c-.16-.86,4.47-7.06,5.36-7.23Z" transform="translate(-554.07 -294.45)"/><path d="M626.69,406.16c-3,2-5.85,4.08-9.35,5.06-3,.86-3.32.59-3-2.52.2-1.89.44-3.8.45-5.7a2.29,2.29,0,0,1,2.31-2.61,26.33,26.33,0,0,0,9.82-3.38c1.44-.82,2-.5,1.83,1.1-.2,2.23-.41,4.45-.62,6.68A1.36,1.36,0,0,1,626.69,406.16Z" transform="translate(-554.07 -294.45)"/><path d="M610.57,478c-1.81.14-2.43-.34-1.86-1.86a80.8,80.8,0,0,1,5-10.28,2.43,2.43,0,0,1,1.85-1.14c2.54-.4,5.08-.8,7.6-1.31,1.69-.34,1.78.47,1.26,1.62a73.11,73.11,0,0,0-3.32,8.58c-.2.66-.57,1.37-1.29,1.36-3,0-5.35,1.65-7.94,2.72A5.85,5.85,0,0,1,610.57,478Z" transform="translate(-554.07 -294.45)"/><path d="M688.6,434.79c.67.52,1.35.25,2,0,.52.14,1.2-.11,1.46.65.38,1.11-1.62,6.22-2.79,6.58-5.16,1.6-9.49,4.64-13.85,7.66a4.87,4.87,0,0,1-.94.3c1.41-3.43,2.94-6.54,4-9.81a11.83,11.83,0,0,1,5.22-6.86c1.5-.95,2.34-1.34,3.3.41A1.82,1.82,0,0,0,688.6,434.79Z" transform="translate(-554.07 -294.45)"/><path d="M608.26,356.84c4.49-1.59,8.68-.46,12.61,1.71,1,.57,3.09,1.19,1.85,3.3a133.33,133.33,0,0,1-17.49,4.66c-.7.15-1.47.76-2.1.17s-.17-1.55.08-2.31A16.16,16.16,0,0,1,608.26,356.84Z" transform="translate(-554.07 -294.45)"/><path d="M617.2,462.83c-1.42,0-1.59-.66-1.08-1.79,1.37-3,2.7-6.06,4-9.09a1.73,1.73,0,0,1,1.45-1.2c3-.31,5.79-1.43,8.64-2.3.54-.17,1.14-.5,1.62,0s0,.94-.15,1.39a46.83,46.83,0,0,1-4.56,9.91,2.36,2.36,0,0,1-1.46,1.29C622.88,461.68,620,462.25,617.2,462.83Z" transform="translate(-554.07 -294.45)"/><path d="M603.51,423.34c1.27,0,2.1,0,2.93,0,4.58,0,4,0,3.29,3.87-.09.49-.24,1-.35,1.45-1.66,7.15,0,6.34-8.2,5.87-3.52-.2-3.5-.38-3.45-4,0-2,0-4,0-6,0-1.33.43-1.76,1.78-1.55A39.23,39.23,0,0,0,603.51,423.34Z" transform="translate(-554.07 -294.45)"/><path d="M602.15,436.16c5.38.24,5.38.24,3.68,5.22-.06.16-.1.32-.15.48-2.59,7.54-2.76,7.68-10.41,9.16-1.06.21-1.42,0-1.09-1.1a80.71,80.71,0,0,0,2.74-12.4c.13-1,.79-1.37,1.74-1.36Z" transform="translate(-554.07 -294.45)"/><path d="M703.14,504.58a19.23,19.23,0,0,1-2,5.85c-.2.43-.39,1-1,.94s-.63-.72-.8-1.15q-2.55-6.62-5.06-13.23a28,28,0,0,0-1.66-4.41c-1.8-3,.07-5,1.78-7,.82-1,1.31-.7,1.64.46a97.42,97.42,0,0,0,6.58,16.62A3.53,3.53,0,0,1,703.14,504.58Z" transform="translate(-554.07 -294.45)"/><path d="M644.84,317.38c-.21.6-.75.82-1.28,1.06-2,.86-4,1.7-5.91,2.61a2,2,0,0,1-2.3-.14,31.9,31.9,0,0,0-10.29-4.82c-1.39-.38-1.42-.83-.48-1.76a31.35,31.35,0,0,1,5.18-3.85,2.59,2.59,0,0,1,2.38-.05,51.32,51.32,0,0,1,11.93,6.05C644.42,316.71,644.8,316.88,644.84,317.38Z" transform="translate(-554.07 -294.45)"/><path d="M639.53,458.71a4,4,0,0,1-1.41,2.83,23,23,0,0,0-5.15,8.73,4.85,4.85,0,0,1-4.92,4c-1.62.11-3.78,1.28-4.72.11s.49-3.21,1-4.84c1.41-4.86,4-8.4,9.52-9C635.72,460.31,637.54,459.36,639.53,458.71Z" transform="translate(-554.07 -294.45)"/><path d="M633.68,543.06a3.8,3.8,0,0,1,2.06,3.18c.22,2.06.59,4.1.87,6.16.18,1.35-.43,1.82-1.75,1.55a36.83,36.83,0,0,1-10-3.65c-1.1-.6-1.75-1.29-1.24-2.78.8-2.35.58-5.77,2.14-6.92s4.19,1.57,6.54,2.07c.48.1,1,.26,1.42.4Z" transform="translate(-554.07 -294.45)"/><path d="M695,465.63a77.87,77.87,0,0,0-.21,15c.17,2.47-1.81,4-3.22,5.63-.63.73-1.15-.06-1.37-.73a112.65,112.65,0,0,1-3.45-11.92,3.52,3.52,0,0,1,1.33-3.92c1.82-1.43,3.35-3.22,5-4.81.45-.42.83-1.29,1.57-.94S694.94,465.16,695,465.63Z" transform="translate(-554.07 -294.45)"/><path d="M617.76,325.48l-1.38-.1c-.51-.38-1.29-.65-.65-1.52l.74-1c4.84-6.45,4.49-7,13.14-3.32,5.57,2.34,5.25,2.36.63,6-3,2.35-5.4,3.34-8.7,1A6.29,6.29,0,0,0,617.76,325.48Z" transform="translate(-554.07 -294.45)"/><path d="M605.4,421.85a30.74,30.74,0,0,0-4.94-.44c-2.87.18-3.74-1.37-4.08-3.83a23.54,23.54,0,0,0-1.12-4.06c-.42-1.3-.35-1.91,1.3-1.45a47,47,0,0,0,13.73,2.14c.9,0,1.4.25,1.17,1.33a36.87,36.87,0,0,0-.68,4.42c-.12,1.41-.83,1.86-2.12,1.8-1.08,0-2.16,0-3.25,0Z" transform="translate(-554.07 -294.45)"/><path d="M647.3,487.62c.11.81-.53,1.5-1.53,1.94a45.56,45.56,0,0,1-9,3c-1.43.29-2.24-.16-2.6-1.55-.17-.64-.41-1.26-.61-1.89-1-3.21-.87-3.45,2.21-4.83q4.32-1.93,8.6-4c1.43-.69,2.13-.5,2.22,1.25S647,485.35,647.3,487.62Z" transform="translate(-554.07 -294.45)"/><path d="M656.71,351.45c3.6-.48,7.21-.9,10.8-1.48,2.2-.35,3.67.19,4.39,2.45.5,1.57,1.23,3.07,1.83,4.61.54,1.38-.12,1.88-1.41,1.7a85.85,85.85,0,0,0-12.61-.79c-1.19,0-1.89-.46-2-1.69-.15-1.64-1.28-3.08-1-4.81Z" transform="translate(-554.07 -294.45)"/><path d="M702.21,473.15a122.3,122.3,0,0,0,2.63,19.25c.55,2.66-.26,5.32-.85,8-2.27-2.72-3.09-6-4.42-9.08a25,25,0,0,0-1-2.8C694.81,482.2,699.52,477.92,702.21,473.15Z" transform="translate(-554.07 -294.45)"/><path d="M613.2,324.94l-4.05,2.36c-2.85,2.58-5.65,5.24-9.15,7-1-.12-1.25-.79-1.3-1.65a2.47,2.47,0,0,1,.49-1.4,8.09,8.09,0,0,0,2.19-3.43c1-2,2.21-3.88,3.34-5.8,1.8-2.36,3.46-4.95,7.06-4.46,2.15-.12,4.28-1,6.66-.33C617,320.07,614.32,322,613.2,324.94Z" transform="translate(-554.07 -294.45)"/><path d="M632.68,479.64c.09-4.43.24-4.59,4.24-6,2.58-.91,5.15-1.86,7.67-2.92,1.56-.66,2.2-.62,2.16,1.39-.08,3.66-.85,6.58-5,7.62a33.53,33.53,0,0,0-5.23,2.3C632.63,483.81,632.59,483.78,632.68,479.64Z" transform="translate(-554.07 -294.45)"/><path d="M613.3,396.05c0,3.2-.18,3.38-3.26,3-4.43-.58-8.84-1.27-13.28-1.74-3.06-.33-2.12-2.25-1.83-4s.63-3,3-2.25a40.57,40.57,0,0,0,13.65,2.32C613.84,393.29,613.15,395,613.3,396.05Z" transform="translate(-554.07 -294.45)"/><path d="M612.55,419.53c.17-1.14.35-1.95.41-2.77.14-2.24,1.26-3.28,3.52-3.66a22.13,22.13,0,0,0,8.55-3.82c.57-.39,1.2-1.21,1.92-.65.55.43.1,1.24-.07,1.87a8.22,8.22,0,0,0-.59,2.15c.07,5.13-3,7.05-7.54,7.67-1.39.19-2.78.46-4.15.77C613,421.45,612.13,421.05,612.55,419.53Z" transform="translate(-554.07 -294.45)"/><path d="M653.65,350.4c-2.13.41-4.17,1.39-6.43,1h0A30.21,30.21,0,0,0,642,343c-1.19-1.36-1.41-2.3.29-3.34,5.73-3.48,4.89-3.94,7.93,2,1.42,2.76,3.21,5.45,3.41,8.72Z" transform="translate(-554.07 -294.45)"/><path d="M702.11,454.74l1.9-1.41c-.43,3.91-.85,7.53-1.23,11.15-.48,4.58-2.88,8.42-4.86,12.42-.21.43-.5,1-1.07.91s-.63-.7-.62-1.18c.11-5.86-.21-11.77,2-17.4C699.08,457.36,700.08,455.6,702.11,454.74Z" transform="translate(-554.07 -294.45)"/><path d="M649.06,555.41a20.9,20.9,0,0,0-2.24,0c-2,.19-2.9-.66-3.12-2.61a45,45,0,0,0-.88-4.88c-.35-1.55.19-2.12,1.77-2a27.68,27.68,0,0,0,6.68-.23c1.11-.21,1.7.34,1.94,1.4.39,1.7.75,3.41,1.28,5.06.68,2.11,0,3.15-2.21,3.18-1.07,0-2.15,0-3.22,0Z" transform="translate(-554.07 -294.45)"/><path d="M615.32,490.08c-1.92-2.48-3.92-4.9-5.72-7.45-1.43-2-1.15-2.56,1.31-3,2.18-.36,3.93-1.7,6-2.43,3-1.07,3.53-.57,3.16,2.45a19.41,19.41,0,0,0-.09,4.44c.37,3.54-1,5.39-4.63,6Z" transform="translate(-554.07 -294.45)"/><path d="M670,481.12c0,1.18-.83,1.59-1.59,2.11-5.21,3.52-11,6.1-15.9,10.15-.62.51-1.46.81-1.78-.26-.43-1.44-2-3.05.24-4.35,3.13-1.86,6.31-3.64,9.43-5.53,2.05-1.24,4-2.64,6-3.91.81-.5,1.55-1.6,2.61-1.07S669.5,480.26,670,481.12Z" transform="translate(-554.07 -294.45)"/><path d="M609.67,391.77a58.63,58.63,0,0,1-11.93-2.42c-1.29-.37-1.62-1.14-1.25-2.2s.11-3.13,2.09-2.78c4.41.79,8.85,1.09,13.3,1.52,2.27.22,1.07,2.55,1.31,3.94.19,1.1-.17,2-1.56,1.94C611.13,391.75,610.64,391.77,609.67,391.77Z" transform="translate(-554.07 -294.45)"/><path d="M597.17,463.14c-2.28,1.25-4.7.44-7,.4-1.14,0-.87-1-.57-1.68,1.24-2.88,2.51-5.74,3.76-8.61,2.44-.22,4.51-1.63,6.87-2.13,1.53-.32,1.8,0,1.29,1.45C600.2,456.16,598.19,459.45,597.17,463.14Z" transform="translate(-554.07 -294.45)"/><path d="M704.59,523.57a18.46,18.46,0,0,0-1.51-3.68c-2.74-4-1.14-7.67.75-11.36.62-1.21,1-1.62,2-.2,1.19,1.79,2.58,3.45,3.93,5.12a1.94,1.94,0,0,1,.48,2,41.1,41.1,0,0,1-3.05,7.62c-.52.56-.46,1.67-1.55,1.69C704.79,524.81,705,523.94,704.59,523.57Z" transform="translate(-554.07 -294.45)"/><path d="M690.14,448.22l.79-1.83c.49-1.17.14-2.86,1.6-3.43a19.73,19.73,0,0,1,6.57-1.09c1.25,0,.83.92.65,1.62-.55,2.24-1.11,4.47-1.67,6.71a1.47,1.47,0,0,1-.42,1.29c-1,.83-2.3,1.21-3.28,2.08a3.69,3.69,0,0,1-.66.39,8.3,8.3,0,0,1-1.54.79c-1,.41-2.11,1.37-3.17.36s-.49-2.14-.31-3.28A18.5,18.5,0,0,1,690.14,448.22Z" transform="translate(-554.07 -294.45)"/><path d="M631.11,477.54c-.1.95-.26,1.93-.3,2.92-.17,4.56-.4,4.83-4.94,5.61-4.1.71-4.17.65-4.2-3.47,0-5.6,0-5.6,5.55-6.48.65-.11,1.29-.26,1.94-.4C630.63,475.43,631.45,475.84,631.11,477.54Z" transform="translate(-554.07 -294.45)"/><path d="M687.6,419.77A21.18,21.18,0,0,0,686,427.7a4.14,4.14,0,0,1-1,3c-1.35.29-2.05,1.93-3.84,1.79,1.45-7.05,3.6-13.93,3.43-21.16-.33-1.31.39-2,1.47-2.45,1.4-.74,1.69-2.63,3.46-3.31C688.93,410.39,687.59,415,687.6,419.77Z" transform="translate(-554.07 -294.45)"/><path d="M684.61,464.63c-3.63,2.57-7.25,5.16-10.91,7.69-.71.49-1.43,1.48-2.35,1.07s-.48-1.63-.61-2.49c-.41-2.69.44-4.41,3.2-5.51,3.21-1.28,6.17-3.18,9.26-4.76.69-.35,1.44-1.2,2.23-.58.61.48.22,1.4.19,2.13,0,.5,0,1-.08,1.49A1,1,0,0,1,684.61,464.63Z" transform="translate(-554.07 -294.45)"/><path d="M608.22,383.94a42.87,42.87,0,0,1-8.19-1c-1.71-.31-2-1.15-1.61-2.61.25-.87.57-1.73.82-2.61a1.27,1.27,0,0,1,1.85-1,39.78,39.78,0,0,0,9.35,1.17c3.22.13,1.89,2.93,2.22,4.57.4,2-1.36,1.63-2.52,1.68A11.39,11.39,0,0,1,608.22,383.94Z" transform="translate(-554.07 -294.45)"/><path d="M639.28,503.13c0,1.53-4.22,5.59-5.33,5.45-.7-.09-.86-.69-1.08-1.22-1.26-3-2.48-6-3.78-8.91-.48-1.08-.26-1.64.82-2.12,3.36-1.49,4.74-1.22,6.89,1.75A17.89,17.89,0,0,1,639.28,503.13Z" transform="translate(-554.07 -294.45)"/><path d="M609.79,491.1l-3-2.46a30.79,30.79,0,0,0-9.16-7.84c-1-.6-2.57-1.29-2.15-2.36s2-.19,3.06-.11c4.85.39,9.1,1.65,11,6.95.47,1.32,1.83,2.32,2.75,3.5.43.55,1.35,1,.88,1.85s-1.35.36-2.06.43C610.62,491.1,610.2,491.09,609.79,491.1Z" transform="translate(-554.07 -294.45)"/><path d="M647.23,490.63a3.64,3.64,0,0,1,.86.43c1.45,1.33,1.25,4.72-.29,6-1.85,1.53-3.69,3.07-5.47,4.68-1,.85-1.43.75-2-.41-.94-1.93-1.71-4-3.25-5.55-.53-.56-.6-1.3.3-1.57A49.39,49.39,0,0,0,647.23,490.63Z" transform="translate(-554.07 -294.45)"/><path d="M602.3,488.61a136.68,136.68,0,0,1-12.43-6c-1.75-1.61-3.75-3-5.18-4.93-.37-.5-.94-1.13-.46-1.78.37-.5,1.09-.32,1.64-.22q2.93.56,5.82,1.24c.45.1,1.14.42,1.21.75.87,3.9,4.72,4.63,7.2,6.78a33.85,33.85,0,0,1,4.58,4.49Z" transform="translate(-554.07 -294.45)"/><path d="M623.25,528.09a19.42,19.42,0,0,1-3.38-2.1,5.45,5.45,0,0,1-2.24-4.92,46.53,46.53,0,0,0-.42-7c-.19-1.92,0-3.08,2.27-1.72a4.94,4.94,0,0,0,1.18.38,1.8,1.8,0,0,1,2.13,1.09,35.45,35.45,0,0,1,2.2,11.82C625,526.7,625.35,528.4,623.25,528.09Z" transform="translate(-554.07 -294.45)"/><path d="M587.42,465.73c2.76-1.18,5.53-.27,8.29,0-.74,2.7-2.12,5.22-2.4,8-.12,1.21-.8,1.55-1.86,1.35-2-.38-3.9-.76-5.83-1.18s-1.39-1.53-.83-2.66C585.7,469.46,587,467.79,587.42,465.73Z" transform="translate(-554.07 -294.45)"/><path d="M631.74,393.39c2.34-1,3.47-3.26,5.13-5,1.28-1.3,1.89-1,2.25.62,0,.08,0,.16,0,.24,1.57,5.44,1.47,5.7-3.08,9.11-1.46,1.09-2.84,2.29-4.29,3.41-1,.74-1.56.53-1.48-.76.12-2.23.3-4.47.46-6.7A1,1,0,0,1,631.74,393.39Z" transform="translate(-554.07 -294.45)"/><path d="M659.22,359.45c4.38.31,8.76.71,13.15.91,2.16.1,2.55,1.15,2.08,2.92s-.94,3.35-1.43,5c-.34,1.15-.95,1.19-1.81.46-3.48-3-6.92-6-11.32-7.54-.75-.27-1.25-.88-.68-1.77Z" transform="translate(-554.07 -294.45)"/><path d="M644.19,353c-2.18.87-4,.76-5.69-1.24a14.07,14.07,0,0,0-4.11-2.74c-1.49-.81-1.44-1.61-.31-2.65,6-5.52,4.61-4.93,8.87.63.85,1.11,1.42,2.43,2.19,3.6a1.64,1.64,0,0,1-.09,2.25A.55.55,0,0,1,644.19,353Z" transform="translate(-554.07 -294.45)"/><path d="M614.91,388.71c-.42-2.37.13-3.24,2.15-3.47a24.6,24.6,0,0,0,7.29-2.32c.85-.4,2.15-1.38,2.7.22s1.8,3.43-.19,4.72a21.78,21.78,0,0,1-10.22,3.48C614.06,391.53,615.13,389.37,614.91,388.71Z" transform="translate(-554.07 -294.45)"/><path d="M620.21,305.05l2.51-.93c3.23-.75,6.34-2,9.7-2.2,2.56.18,5.23-.88,7.66.69a43.21,43.21,0,0,1-10.57,5.8c-1.19.5-2.91-.31-4.39-.38a34.25,34.25,0,0,0-7.31.31C618.17,306.72,619.65,306.22,620.21,305.05Z" transform="translate(-554.07 -294.45)"/><path d="M613.72,538c-.05-2.76,1-3.45,3-2.47,1.79.88,3.55,1.81,5.36,2.63a2.06,2.06,0,0,1,1.35,2.76c-.48,1.76-.8,3.56-1.22,5.33-.21.89-.71,1.78-1.7,1A18.31,18.31,0,0,1,613.72,538Z" transform="translate(-554.07 -294.45)"/><path d="M634.22,536.55a3,3,0,0,0,0,.74c1.16,5.32.52,4.54-3.6,3-4.88-1.85-4.88-1.85-4.47-7,.07-.91.11-1.82.16-2.72a5.71,5.71,0,0,1,6.32-.14C634.56,531.75,634.77,534.22,634.22,536.55Z" transform="translate(-554.07 -294.45)"/><path d="M627.72,394.81c-3.25,1.62-6.47,3.34-10.15,3.81-1,.13-2.49.65-2.32-1.1.14-1.46-1.43-3.73,1.35-4.29a36.76,36.76,0,0,0,10.32-3.43c1-.54,1.6-.32,1.7.84.13,1.48.37,3-.91,4.17Z" transform="translate(-554.07 -294.45)"/><path d="M642.42,391.7c-1-.07-.95-.87-1.27-1.41-3.13-5.27.92-8.77,3.1-12.72a.91.91,0,0,1,1-.54c1.36.27,3.5,4.28,2.83,5.44-1.62,2.81-3.29,5.58-5,8.35A8.5,8.5,0,0,1,642.42,391.7Z" transform="translate(-554.07 -294.45)"/><path d="M614.43,380.86c-.66-2.58.17-3.36,2.21-3.59a27.79,27.79,0,0,0,6-1.49c1.62-.56,2.07.36,2.54,1.48s1.41,2.57-.23,3.48a22,22,0,0,1-8.86,3C613.34,384,614.75,381.52,614.43,380.86Z" transform="translate(-554.07 -294.45)"/><path d="M611.26,314.49a13.19,13.19,0,0,1,6.52-4.92,32.51,32.51,0,0,1,7.88-.52c.49.05,1.1.05,1.28.57s-.32.91-.71,1.21c-2.73,2.13-5,5-9.18,4.43-1.49-.21-3.09.4-4.64.66C611.16,316.13,610.66,315.76,611.26,314.49Z" transform="translate(-554.07 -294.45)"/><path d="M684.84,466.62c.2,2.24,0,3.87-1.58,5.24-3.22,2.85-6.6,5.49-10.06,8-.89.66-1.32.77-1.67-.51-.54-2-.37-3.44,1.54-4.68,3.18-2.07,6.21-4.38,9.31-6.57C683.1,467.64,683.87,467.21,684.84,466.62Z" transform="translate(-554.07 -294.45)"/><path d="M694.15,434.76c1.4-1.75,3.7-1.54,5.46-2.52,4.37-.67,4.36-.67,2.73,3.6a14.58,14.58,0,0,0-.72,2.11,2.55,2.55,0,0,1-3.17,2.29,5.08,5.08,0,0,0-1.23.06c-4.73.52-4.72.52-3.33-4.09A13.72,13.72,0,0,0,694.15,434.76Z" transform="translate(-554.07 -294.45)"/><path d="M649.52,368c.87,0,5.37,3.56,5.54,4.4a1.59,1.59,0,0,1-.48,1.35,33.62,33.62,0,0,1-2.22,2.66c-1,.93-1.22,3.25-3.06,2.42a5,5,0,0,1-2.48-6.31c.55-1.21,1.1-2.41,1.67-3.61C648.7,368.44,648.88,367.94,649.52,368Z" transform="translate(-554.07 -294.45)"/><path d="M628.32,495.16c-2.12,0-5.79-4.42-5.41-6.17.14-.67.71-.9,1.28-1a16.4,16.4,0,0,1,2.21-.35c1.54-.14,3.44-1.76,4.41-.66,1.21,1.38,1.42,3.64,2.08,5.51a.94.94,0,0,1-.63,1.37C630.85,494.32,629.43,494.78,628.32,495.16Z" transform="translate(-554.07 -294.45)"/><path d="M596.79,361.39a22.29,22.29,0,0,0-3.36,6.24c-.71,1.65-1.58,2-3.22,1.39a9.5,9.5,0,0,0-3.85-.69c-.08-.09-.16-.19-.25-.28-.17-1.51.86-2.46,1.74-3.39,2.21-2.35,4.52-4.61,6.82-6.85.76-.74,1.64-1.75,2.77-1.09s.44,1.95.41,3a2.18,2.18,0,0,1-.73,1.53Z" transform="translate(-554.07 -294.45)"/><path d="M624.35,533.17c-.2,4.31-.23,4.32-4,2.3-.29-.16-.6-.27-.9-.42-4.17-2-4.54-3.19-2.5-7.49.45-.95.82-1,1.67-.44a21.89,21.89,0,0,0,4.78,2.66C625.29,530.45,624.15,532.05,624.35,533.17Z" transform="translate(-554.07 -294.45)"/><path d="M705.61,431.27a3.11,3.11,0,0,1,2-1.52h.49c1.13,0,2.36-1.61,3.14-.65s-.44,2.4-.85,3.6c-.74,2.18-1.62,4.32-2.32,6.52-.84,2.66-2.73,1.14-4.1,1-1.57-.2-.81-1.54-.58-2.38C704,435.57,705.23,433.57,705.61,431.27Z" transform="translate(-554.07 -294.45)"/><path d="M657.65,363.94c-.11,1.56-.14,3.13-.35,4.68-.25,1.83-1.14,2.31-2.63,1a6,6,0,0,0-1.33-1.1c-3-1.43-4.25-3.68-3.58-7C652.36,359.38,656.79,360.74,657.65,363.94Z" transform="translate(-554.07 -294.45)"/><path d="M631.23,510.62c-1.86.9-2.77.17-3.53-1.65-1.2-2.89-2.74-5.64-4.1-8.47-.29-.59-1.24-1.32-.17-1.86s2.61-1.66,3.36-.48c2.4,3.77,4.79,7.65,4.47,12.44Z" transform="translate(-554.07 -294.45)"/><path d="M581.33,390.8l-2.54-1.46c-1.67-1.89-1-4-.57-6.1.25-1.24,1-.77,1.67-.39,1.85,1.09,3.7,2.18,5.49,3.36,1.15.76.75,5.51-.52,6C583.38,392.72,582.67,390.86,581.33,390.8Z" transform="translate(-554.07 -294.45)"/><path d="M682.59,362.15c4.92.14,9.58,1.55,14.23,2.92.94.27.94,1.08.5,1.84s-1,1.7-1.58,2.54a1.36,1.36,0,0,1-2.29.32C690.06,367,686.2,364.83,682.59,362.15Z" transform="translate(-554.07 -294.45)"/><path d="M628.57,350.35l-.88.89c-3,1.26-5.33-.86-7.93-1.58a2.83,2.83,0,0,1-1.46-.83l.05-.05c-.17-5.56.51-6,5.43-3.37a31.22,31.22,0,0,0,4,2C629.65,348.07,629.44,349.07,628.57,350.35Z" transform="translate(-554.07 -294.45)"/><path d="M615.26,376c-1.09,0-1.93-.4-1.87-1.55.08-1.34-1.06-3.15,1-3.88a20.27,20.27,0,0,1,5.28-1.28c2.24-.17,2.54,2.06,3.21,3.49.76,1.59-.93,1.64-1.82,1.9C619.14,375.17,617.19,375.52,615.26,376Z" transform="translate(-554.07 -294.45)"/><path d="M584.33,369.89a14.26,14.26,0,0,1,5.62.68c1.28.39,2.12,1,1.22,2.51,0,.07-.06.15-.1.22-.74,1.55-.55,4-2,4.58-1.32.56-2.67-1.53-4.25-2s-2.17-1.56-1.47-3.2c.38-.91.67-1.86,1-2.79Z" transform="translate(-554.07 -294.45)"/><path d="M635.71,528.07c-1,0-1.79-.22-2.11-1.32-1.27-4.36-2.56-8.72-3.82-13.09a2.82,2.82,0,0,1,.1-1,6.81,6.81,0,0,1,2.84-.61l.32.22c2.08,4,2.64,8.41,3.86,12.65a8,8,0,0,1,.31,1.19C637.21,527.16,637.11,528.12,635.71,528.07Z" transform="translate(-554.07 -294.45)"/><path d="M622.73,510.6a30.47,30.47,0,0,0-4.21-8.93c-.44-.72-1.91-1.57-.73-2.37a2.57,2.57,0,0,1,3.39.59,19.78,19.78,0,0,1,1.83,2.94c1,2,2.09,4,3,6,1.24,2.87,1,3.1-2.23,3.18C623,511.86,622.46,511.51,622.73,510.6Z" transform="translate(-554.07 -294.45)"/><path d="M603.43,371.72c2.3-.14,4.29-.24,6.27-.39,2.27-.17,1.92,1.49,2.08,2.85s-.41,2.11-1.94,2.1a30,30,0,0,1-7.61-1c-.77-.2-2.09-.11-1.75-1.53.27-1.13.7-2.3,2.28-2.1Z" transform="translate(-554.07 -294.45)"/><path d="M588.27,381.42c-.29,3.31-1.4,3.91-4.19,2.21a26.6,26.6,0,0,1-2.82-2c-.87-.68-2.53-1-1.3-2.76,1-1.46,1.91-2.8,3.95-1.54,1.05.65,2.2,1.15,3.25,1.8A2.05,2.05,0,0,1,588.27,381.42Z" transform="translate(-554.07 -294.45)"/><path d="M589.8,395.88l-3.4-1.6c.43-1.6.89-3.2,1.27-4.81s1.2-1.71,2.58-1.15c3.67,1.47,4.28,3.12,2.59,6.8C592.06,396.8,590.78,395.5,589.8,395.88Z" transform="translate(-554.07 -294.45)"/><path d="M596.13,430.88c-2.15-1.46-3.84-2.62-5.55-3.76s-1.4-3-1-4.47,1.82-.43,2.8-.52c2.88-.26,3.77,1.31,3.74,3.84C596.12,427.44,596.13,428.9,596.13,430.88Z" transform="translate(-554.07 -294.45)"/><path d="M635.25,535c.19-1.11-.41-2.08-.49-3.14s-.49-2.06,1-2.3,1.83.68,2,1.88a5,5,0,0,0,.39,1.14q1,5.22,2,10.43c-1.27.94-2.42,1.09-3.3-.5Q636.05,538.75,635.25,535Z" transform="translate(-554.07 -294.45)"/><path d="M594.78,381.41c-3.27-.27-4.22-1.76-3.11-4.88a2.09,2.09,0,0,1,.08-.23c1.26-3.54,3-3.88,5.51-.84,1.29,1.59-.22,3.25-.56,4.85C596.49,381.3,595.71,381.55,594.78,381.41Z" transform="translate(-554.07 -294.45)"/><path d="M613.74,498.14c4.92,6.27,6.63,9.27,7.17,12.74a6.63,6.63,0,0,1-5.2-4c-1.19-2.36-2-4.91-3-7.33-.55-1.27,0-1.44,1.06-1.4Z" transform="translate(-554.07 -294.45)"/><path d="M652.92,358c-3.25,0-4.24-.83-4.23-3.49,0-1.09,2.79-2.6,4.86-2.29,2.36.36,2.33,2.68,2.45,4.29C656.22,359.21,653.76,357.27,652.92,358Z" transform="translate(-554.07 -294.45)"/><path d="M585.78,352.41c.42-.92,1.31-1.33,2.05-1.9s1-.2,1.23.42a3,3,0,0,1-.11,1.95,133.39,133.39,0,0,1-4.84,13.75l-.34.22c-.72.48-1.44,1.46-2.35.66s.12-1.49.42-2.18C583.59,361.15,585.31,357,585.78,352.41Z" transform="translate(-554.07 -294.45)"/><path d="M640.59,545.56c.46,2.35.95,4.69,1.36,7.05.15.86.86,2.12-.82,2.29-1.38.14-2.67-.06-2.84-1.92-.25-2.79-.59-5.58-.89-8.36C638.87,543.55,639.88,544,640.59,545.56Z" transform="translate(-554.07 -294.45)"/><path d="M592.25,451.19a2.73,2.73,0,0,1-.85.46c-1.27.18-2.87.69-3.7-.3a3.46,3.46,0,0,1,.11-4.08c2.46-.75,3.87-2.93,6.09-4.51C594.09,445.89,592.64,448.45,592.25,451.19Z" transform="translate(-554.07 -294.45)"/><path d="M589.81,407.8c-2.21-.45-2.76-1.6-1.5-3.52.6-1.36.22-2.7,0-4.09-.13-.91-.62-1.91,0-2.84l0,0c3.75.07,3.93.31,3.59,3.92a32.84,32.84,0,0,0-.12,4.65C592,407.54,591.22,408,589.81,407.8Z" transform="translate(-554.07 -294.45)"/><path d="M706.7,498.59c1.5,3.58,2.92,6.84,4.61,10,.49.91.61,2.15-.34,2.71s-1.47-.66-2-1.32C706.41,506.7,704.16,503.35,706.7,498.59Z" transform="translate(-554.07 -294.45)"/><path d="M696,401.72l-.83,2.09c.26,1.12-.46,1.77-1.13,2.46-.93.69-.78,2.4-2.35,2.48-1.16-1.47.11-2.95,0-4.43l2.49-7.45c1.12-1.38,2-.77,2.11.55S696.74,400.34,696,401.72Z" transform="translate(-554.07 -294.45)"/><path d="M599.68,370.91a3.56,3.56,0,0,1-1.21,2.63c-.86.59-1.57-.24-2.18-.7-1-.77-2.45-1.52-1.94-3.1a31.06,31.06,0,0,1,2.15-4.7c.3-.59.93-.86,1.25,0C598.44,367,599,369,599.68,370.91Z" transform="translate(-554.07 -294.45)"/><path d="M700.08,424.79c1.48,2,.4,2.67-1.48,3-.54.42-1.23.23-1.84.5-1.56.69-2.64.14-3.17-1.48h0c-.64-1.21-1.55-2.58-.1-3.65,1.64-1.21,5-.71,5.95.62A10.07,10.07,0,0,1,700.08,424.79Z" transform="translate(-554.07 -294.45)"/><path d="M583.73,486.7c-5-1.48-9.28-3.9-11.78-8.74-.53-1-.72-1.95.48-2.51,1.42-.66,1.38.63,1.71,1.4,2,4.58,5.79,7,10.17,8.87.39.17.72.48.47.89S584.11,486.92,583.73,486.7Z" transform="translate(-554.07 -294.45)"/><path d="M630.28,387.41c2.5-1,3.57-3.72,5.89-4.92a.47.47,0,0,1,.41.41,2.9,2.9,0,0,1-.51,4c-1.39,1.4-2.64,2.93-4,4.4a.94.94,0,0,1-.78.91c-2.83-.77-1.44-2.84-1.39-4.51Z" transform="translate(-554.07 -294.45)"/><path d="M705.08,447.21a12.19,12.19,0,0,0-3.51,1.94c-1,.07-1.69,0-1.27-1.31s.64-2.38,1-3.55c.76-2.49,2.25-3.11,4.55-2,1,.5.72,1.32.65,2.11A6.16,6.16,0,0,1,705.08,447.21Z" transform="translate(-554.07 -294.45)"/><path d="M590.77,412.84a6.13,6.13,0,0,1-.67,4.28,3.93,3.93,0,0,1-4.73,2.1c-1.41-.35-2-1.06-1-2.4h0c.49-.86.93-1.75,1.39-2.63C587,411.85,588.25,411.52,590.77,412.84Z" transform="translate(-554.07 -294.45)"/><path d="M634.24,355.33a13.54,13.54,0,0,0-4.21-2.42c-1.38-.58-1.41-1.19-.3-2,1.35-1.43,2.75-1.44,4.3-.25s3.1,2.21,4.65,3.31l.22.37C637.77,356.57,636,355.74,634.24,355.33Z" transform="translate(-554.07 -294.45)"/><path d="M622.48,497.13c-2.09-.29-2.61-2.22-3.87-3.31-1.75-1.52-1.09-2.56.43-3.63,1.2-.86,2.14-.88,2.69.66a17,17,0,0,0,2,3.41c.39.59,1.46.95,1.1,1.75S623.21,496.72,622.48,497.13Z" transform="translate(-554.07 -294.45)"/><path d="M612.35,506.9c3.93,3.61,3.39,8.44,3.5,13.35C613.46,518.16,612.67,515.3,612.35,506.9Z" transform="translate(-554.07 -294.45)"/><path d="M595.32,385c-.58.86.17,3.2-2.05,2.69-1.63-.38-4.12-.43-4.21-2.91,0-1,0-2.89,1.91-3S595.4,383.49,595.32,385Z" transform="translate(-554.07 -294.45)"/><path d="M637.7,379.3c1.37-1.37,2-3.21,2.91-4.83.34-.58.65-1.25,1.46-1a1.67,1.67,0,0,1,1.21,1.68c.06,1.11-3.4,7.17-4.4,7.51-.32.11-.77-.15-1.16-.25C635.78,381.11,635.77,380.49,637.7,379.3Z" transform="translate(-554.07 -294.45)"/><path d="M629.75,379.89a4.64,4.64,0,0,0,1-.6c.77-.77,1.74-1.6,2.72-1.15,1.2.55,1.35,1.92,1.19,3.21h0c-1.13,1.09-2.28,2.16-3.4,3.26-1.3,1.28-2,.81-2.31-.77a7.29,7.29,0,0,1-.16-3.44A.86.86,0,0,1,629.75,379.89Z" transform="translate(-554.07 -294.45)"/><path d="M629.67,372.24a4.07,4.07,0,0,1,2.55,3.4c.13,1-2.59,3.21-3.71,3.21-.8,0-2.74-2.86-2.39-3.92C626.65,373.31,628.38,373,629.67,372.24Z" transform="translate(-554.07 -294.45)"/><path d="M689.75,462.25c1.33-1,2.66-1.95,4-2.89.62-.43,1.32-1.49,2.06-.76s-.45,1.41-.71,2.14c-2.09,2-4.16,4-6.26,6-.52.49-1,1.47-1.74,1.18-1-.37-.36-1.45-.44-2.22a5.52,5.52,0,0,1,.05-1,.56.56,0,0,1,.43-.42A5.83,5.83,0,0,0,689.75,462.25Z" transform="translate(-554.07 -294.45)"/><path d="M694.66,454.26l1-.61c1.95,0,1.46,1,.85,2a51.66,51.66,0,0,0-6.89,5.44c-3.31,1.36-1.5-1.4-1.91-2.37-.12-1,.51-1.57,1.29-2C690.91,456,692.42,454.27,694.66,454.26Z" transform="translate(-554.07 -294.45)"/><path d="M572.47,466.26l.87-.09c1.59-.16,2.37.31,1.76,2.08-.44,1.32-.7,2.7-1.09,4a2.23,2.23,0,0,1-2.51,1.57c-1.16-.11-.75-1.3-.74-2C570.78,469.83,570.33,467.64,572.47,466.26Z" transform="translate(-554.07 -294.45)"/><path d="M606.74,311.49c2-2.17,4-4.38,7.07-5.05a5,5,0,0,1,2.73-.31c-1.83,3.46-5.35,4.54-8.27,6.41-.58.16-1.33.61-1.71.41C606,312.65,607,312,606.74,311.49Z" transform="translate(-554.07 -294.45)"/><path d="M581.88,465.71c1.21-1,2.58-.63,3.93-.51-.5,2.77-2.27,4.93-3.49,7.35-.36.71-1.08.72-1.74.38s-.58-.91-.4-1.5C580.76,469.52,581.32,467.62,581.88,465.71Z" transform="translate(-554.07 -294.45)"/><path d="M637.49,369.47c.06,1-2.73,4.85-3.46,4.59-1.42-.49-1.93-1.92-2.62-3.11-.17-.28,3.25-3.33,3.73-3.38A3,3,0,0,1,637.49,369.47Z" transform="translate(-554.07 -294.45)"/><path d="M600.79,357.92c2.23.54,2.7,1.82,1.76,3.86-.77,1.69-1.36,3.46-2.13,5.43-1.3-2.07-1.3-4.23-1.6-6.31C598.27,359.11,599,358.14,600.79,357.92Z" transform="translate(-554.07 -294.45)"/><path d="M579.29,363.84c.64-3.82,1.37-7.62,3.53-10.95,1.44-.14,1.28.65,1.11,1.69a36,36,0,0,1-3.58,9.81c-.24.34-.56.7-1,.48S579,364.22,579.29,363.84Z" transform="translate(-554.07 -294.45)"/><path d="M644.54,373.11c-1.29-1-2.53-1.49-2.09-3.11.26-1,.56-1.9.8-2.85.26-1.11.49-2.22,2.06-1.66,1.25.45,2.36,1,1.69,2.68-.5,1.22-1,2.43-1.61,3.62A12,12,0,0,1,644.54,373.11Z" transform="translate(-554.07 -294.45)"/><path d="M600.27,319.47c1.49-2.18,3.7-3.41,6-4.52l3.06-1.07c.16,1.23-1.18,1.63-1.13,2.59-.17,1.43-1.35,1.93-2.41,2.49-1.5.8-2.9,1.79-4.44,2.5-.67.23-1.51.7-2,0S599.74,320,600.27,319.47Z" transform="translate(-554.07 -294.45)"/><path d="M613.42,532.19c-1-4.17-.55-7.91-.7-11.89C616.25,523.23,616.46,526.65,613.42,532.19Z" transform="translate(-554.07 -294.45)"/><path d="M623.75,366.9c2.52-.5,3.33,1.72,4.68,3,.42.4.08.95-.33,1.28-.82.67-1.73,1.67-2.79,1.28-1.57-.58-1.92-2.38-2.71-3.69-.62-1,.82-1.21,1.16-1.88Z" transform="translate(-554.07 -294.45)"/><path d="M627.16,364.37l1.08-1a9.92,9.92,0,0,1,3.35,1.54c.63.46,1.71.67,1.55,1.7s-1.28,1.67-2.16,2.23c-1,.66-1.52-.4-2-1C628.2,366.86,626.25,366.34,627.16,364.37Z" transform="translate(-554.07 -294.45)"/><path d="M575.2,382.29l-2.43,2.43a2.8,2.8,0,0,1-3.18-2c-.2-.65,3.16-3.37,3.91-3.32C575.23,379.5,575.85,380.56,575.2,382.29Z" transform="translate(-554.07 -294.45)"/><path d="M593.78,439.72l-.34.5c-1.66,2.45-3.52,4.65-6.57,5.4-.44-2.08.11-3.56,2.25-4.46a21.53,21.53,0,0,0,3.62-2.48C593.72,438.39,594.22,438.59,593.78,439.72Z" transform="translate(-554.07 -294.45)"/><path d="M571.9,464.58a9.94,9.94,0,0,1,4.2-5.53c.47-.31.9-.93,1.48-.5s.36,1.08.17,1.61c-.46,1.31-1,2.6-1.49,3.89C574.8,464.21,573.42,465,571.9,464.58Z" transform="translate(-554.07 -294.45)"/><path d="M619.11,497.52c-3.07.48-5.2-1-6.88-3.36.06-2.35,1.67-1.62,3-1.49A10.43,10.43,0,0,1,619.11,497.52Z" transform="translate(-554.07 -294.45)"/><path d="M701.1,421.78c2.76-1.42,3.8,1.48,5.64,2.34.65.31.08,1.24-.59,1.5-1.29.48-2.61,1.17-3.95.1C702.15,424.32,700,423.5,701.1,421.78Z" transform="translate(-554.07 -294.45)"/><path d="M577.46,465.75a5.31,5.31,0,0,1,2.8-.53c-.54,2.07-1.08,4.15-1.63,6.22a1.48,1.48,0,0,1-2.06,1.2c-1.17-.4-.61-1.35-.42-2.1C576.56,468.94,577,467.35,577.46,465.75Z" transform="translate(-554.07 -294.45)"/><path d="M585.68,481.49c-3.38-.36-6.27-2.54-6.29-4.67,0-.78-.21-1.77.93-2a1.54,1.54,0,0,1,1.86,1.25C582.8,478.17,584.29,479.72,585.68,481.49Z" transform="translate(-554.07 -294.45)"/><path d="M593,413.76c1.56,1.88,1.66,3.82,2.11,5.62.19.76-.09,1.34-1,1.29-1.15-.07-2.52,0-3.28-.78s.62-1.46.85-2.28C592,416.44,592.49,415.3,593,413.76Z" transform="translate(-554.07 -294.45)"/><path d="M601.22,490.72c2.17.46,4.33,1,6.51,1.37,1.57.29,2.33,1.53,3.2,2.59.51.63-.09.82-.62.91a17.93,17.93,0,0,0-4.56-1.86l-2.91-1.14c-.8-.4-1.6-.79-2.39-1.2-.2-.11-.44-.37-.16-.55A2.29,2.29,0,0,1,601.22,490.72Z" transform="translate(-554.07 -294.45)"/><path d="M609.76,496.65c.3.51.61,1,.92,1.52l2.15,6.17c-3.69-2.17-4.05-6-6.86-8.49C607.75,495.59,608.71,496.3,609.76,496.65Z" transform="translate(-554.07 -294.45)"/><path d="M642.76,357.39c0-.8-1-1.7.24-2.37a4,4,0,0,1,3.29-.55c1.07.38,1,1.58,1.27,2.5s-.34,1.23-1.09,1.28c-1.06.07-2.12.06-3.18.08l0,0A.88.88,0,0,1,642.76,357.39Z" transform="translate(-554.07 -294.45)"/><path d="M614.48,368.89c-1,.07-1.78,0-2-.89a1.31,1.31,0,0,1,1.28-1.74c1.55-.18,3.06-1.55,4.69-.3.38.3.9.78.55,1.23C617.79,368.75,615.84,368.38,614.48,368.89Z" transform="translate(-554.07 -294.45)"/><path d="M634.8,376a21.14,21.14,0,0,0,3.36-4.29c.33-.45.76-1,1.43-.57s.46,1,.17,1.55l-3,5.71,0,0c-1.2.08-1.34-1.05-1.92-1.67C634.5,376.49,634.49,376.24,634.8,376Z" transform="translate(-554.07 -294.45)"/><path d="M573.9,376.42c1-.42,1.37-1.71,2.65-1.58,1.07.1,2.27.1,2.85,1.11.4.69-.35,1.33-.79,1.9a2.05,2.05,0,0,1-2.8.73c-.93-.46-2.11-.69-1.9-2.15Z" transform="translate(-554.07 -294.45)"/><path d="M577.29,372.37l2.05-3c1,0,2.48-.7,2.81.64s.05,3.1-1.34,3.67A2.59,2.59,0,0,1,577.29,372.37Z" transform="translate(-554.07 -294.45)"/><path d="M586.77,483.69c1,1.05,2.5,1.08,3.56,2-1.68.73-3-.43-4.37-1-3.21-1.25-6.49-2.51-8.67-5.45-.14-1.57-.76-3.18.54-4.58.1.13.29.26.29.39C577.75,481.19,582.42,482.28,586.77,483.69Z" transform="translate(-554.07 -294.45)"/><path d="M585.8,424.82a4,4,0,0,1-2-1.05c-.42-3,.34-3.71,2.87-2.8,1.72.63,1.16,2,1.14,3.13C587.77,425.87,586.49,424.6,585.8,424.82Z" transform="translate(-554.07 -294.45)"/><path d="M583.72,394c.83,1.56.17,2.09-1.3,1.59a34.79,34.79,0,0,1-4.26-2,1.27,1.27,0,0,1-.71-1.66c.36-.93,1.08-.44,1.67-.27s1.4.45,2.1.68Z" transform="translate(-554.07 -294.45)"/><path d="M564.8,391.9c.06.82-.68,1.19-1,1.77-.64.13-1.27.29-1.91.4-.8.14-1.74.42-2.23-.44s.07-1.93.57-2.73,1.44-.58,2.21-.23S564,391.49,564.8,391.9Z" transform="translate(-554.07 -294.45)"/><path d="M689.15,428.19l-.55-.42c-1.06-1.09-1.24-3.38-.3-4.29a2,2,0,0,1,2.32-.25,20.14,20.14,0,0,1,1.65,4.75C691.31,429,690.23,428.59,689.15,428.19Z" transform="translate(-554.07 -294.45)"/><path d="M603.22,369.75a8.19,8.19,0,0,1,6.26-2.43c.75,0,1.29.27,1.32,1.13a1.13,1.13,0,0,1-1.2,1.28C607.47,369.78,605.35,369.75,603.22,369.75Z" transform="translate(-554.07 -294.45)"/><path d="M643.8,361c1.46-.84,2.93-.22,4.4,0a1,1,0,0,1,0,.25c-.28,1.15.87,2.85-1,3.35C645.63,364.94,643.91,363,643.8,361Z" transform="translate(-554.07 -294.45)"/><path d="M595.25,432.32c.29.78,1.09,2-.81,1.29a13.34,13.34,0,0,1-4.17-1.85,13.93,13.93,0,0,1-.39-1.67c-.12-1,.19-1.54,1.21-.82C592.5,430.26,593.87,431.3,595.25,432.32Z" transform="translate(-554.07 -294.45)"/><path d="M557.75,393.74c-1.55.25-3.27.76-2.9-1.91,1-1,1.25-3.54,3.13-2.68s-.3,2.53-.14,3.87A2.58,2.58,0,0,1,557.75,393.74Z" transform="translate(-554.07 -294.45)"/><path d="M586.34,430.21a5.48,5.48,0,0,1-2-2c-.7-2.26-.68-2.31,1-2.46h0c.87,1,2.6,1,2.9,2.54S588.56,431.16,586.34,430.21Z" transform="translate(-554.07 -294.45)"/><path d="M566.28,388l.92.9c.71,1.45.51,2.27-1.35,1.94a.84.84,0,0,0-.39-.06,12.5,12.5,0,0,1-1.64-1c-.57-.47-2.14-.3-1.44-1.64a1.72,1.72,0,0,1,2.83-.68A6.38,6.38,0,0,0,566.28,388Z" transform="translate(-554.07 -294.45)"/><path d="M569.28,388.29c-1.21.17-1.89-.62-2.55-1.43-.44-.64-1.24-1.19-.18-2,1.38-1.1,2.3-.05,3.34.56.76.46,1.09,1,.39,1.8Z" transform="translate(-554.07 -294.45)"/><path d="M606.84,354c2,.13,2,.13,1.43,1.5-1.3.06-1.89,1.17-2.74,1.89s-1.39.84-2.1,0,0-1.5.62-1.93C604.94,354.87,605.91,354.44,606.84,354Z" transform="translate(-554.07 -294.45)"/><path d="M606.28,350.5c.8,0,1.34.6,1.22,1.21-.22,1.11-1.54,1-2.28,1.57-1.41.23-2.3,1.76-3.88,1.58v0c-.79-1.46.14-2.28,1.19-3S604.76,350.26,606.28,350.5Z" transform="translate(-554.07 -294.45)"/><path d="M583.73,486.7c.66-.06,1-.31.58-1l7.9,2.54a5.93,5.93,0,0,0,3,.95c-1.68,1-3.15-.19-4.69-.48A25.07,25.07,0,0,1,583.73,486.7Z" transform="translate(-554.07 -294.45)"/><path d="M668.11,431.2c0,3.44-1.65,6.45-2.57,9.64-.35,1.22-.37,1.92,1.12,1.89-.69.52-1.4,1.68-2.23,1.09s0-1.68.31-2.5C665.83,437.93,667,434.57,668.11,431.2Z" transform="translate(-554.07 -294.45)"/><path d="M577.83,474.66c-.28,1.51.54,3.16-.54,4.58a5.81,5.81,0,0,1-1.73-2.63,1.67,1.67,0,0,1,.27-2.05A1.43,1.43,0,0,1,577.83,474.66Z" transform="translate(-554.07 -294.45)"/><path d="M639.7,364.61c-.4.82-.18,2.26-1.46,2.5a1.38,1.38,0,0,1-1.52-1.57,2.05,2.05,0,0,1,2-2.13C639.42,363.35,639.75,363.79,639.7,364.61Z" transform="translate(-554.07 -294.45)"/><path d="M559.92,399.28c-.11-1.14-.72-2.22-.52-3.41,1-.1,2.07-.38,2.91.52C562.25,398,562.1,399.47,559.92,399.28Z" transform="translate(-554.07 -294.45)"/><path d="M635.69,362.42a1.34,1.34,0,0,1-.3,1.95c-.66.56-1.24.27-1.8-.08-.73-.45-1.41-1-2.67-1.86h4.77Z" transform="translate(-554.07 -294.45)"/><path d="M580.83,422.75c-1.41-.71-1.61-1.95-1.43-3.34l1.43-.14c.56-.28.78.07.94.53C581.62,420.83,582.69,422.26,580.83,422.75Z" transform="translate(-554.07 -294.45)"/><path d="M641.24,364.42c.87.91.76,4.15-.15,4.68a.71.71,0,0,1-.89-.08.92.92,0,0,1-.23-1.12l1.26-3.48Z" transform="translate(-554.07 -294.45)"/><path d="M698.15,431.26c-1,.25-2,1.26-3.14.44a1.16,1.16,0,0,1-.2-1.1c.78-1.35,2.12-.81,3.28-.84Z" transform="translate(-554.07 -294.45)"/><path d="M576.19,386.78c-1,.73-1.76.25-2.15-.65-.52-1.2.56-1.7,1.29-2.31C577.13,384.36,576.1,385.73,576.19,386.78Z" transform="translate(-554.07 -294.45)"/><path d="M689.61,429.78c0,1,0,2,0,2.93-.7.41-1.39.6-1.81-.32a3.07,3.07,0,0,1-.1-2.58C688.19,428.83,689,429.88,689.61,429.78Z" transform="translate(-554.07 -294.45)"/><path d="M621.75,363.84c.79.62,2,1.08.94,2.41a1.68,1.68,0,0,1-2.68-1.06C619.63,363.86,620.94,364,621.75,363.84Z" transform="translate(-554.07 -294.45)"/><path d="M571.93,387.41a3.41,3.41,0,0,1,3.33,1.88h-4.34C570.8,388.41,571.58,388,571.93,387.41Z" transform="translate(-554.07 -294.45)"/><path d="M701.18,428.32c1.24.06,2.41.17,1.39,1.89a4.07,4.07,0,0,1-.49.05c-.75,0-1.69.88-2.2-.21S700.73,428.9,701.18,428.32Z" transform="translate(-554.07 -294.45)"/><path d="M710.06,379.89c-1.43,2.07-2.72,2.38-4.39,1.06A8.12,8.12,0,0,1,710.06,379.89Z" transform="translate(-554.07 -294.45)"/><path d="M559.85,387.86c-.66-.13-1.35-.22-1.09-.86a2.37,2.37,0,0,1,2-1.58c.52,0,1.12.14.91.79C561.41,387.13,560.52,387.49,559.85,387.86Z" transform="translate(-554.07 -294.45)"/><path d="M590.77,412.84c-3.75-1.27-4.83,1.75-6.41,4,.2-1.71,1.34-3,1.95-4.54,1.5-.54,3-1.33,4.51,0h0C590.8,412.47,590.79,412.65,590.77,412.84Z" transform="translate(-554.07 -294.45)"/><path d="M565.76,382.45l.51.84-.21.13c-.84.59-1.54,1.51-2.75,1.21-.15,0-.38-.44-.32-.56C563.51,382.87,564.67,382.7,565.76,382.45Z" transform="translate(-554.07 -294.45)"/><path d="M651.23,302.45c-.9,0-2-.2-2.21-1s1-.75,1.67-1l2.49-.45C652.82,301.06,650.44,300.48,651.23,302.45Z" transform="translate(-554.07 -294.45)"/><path d="M579.29,363.84c.05.76.45.85,1.06.55-.38,1-.75,1.95-1.12,2.92C577.09,366.12,579.07,365,579.29,363.84Z" transform="translate(-554.07 -294.45)"/><path d="M615.21,492.67c-1.12.25-2.55-.13-3,1.49-1.2-.84-1.19-1.58.3-1.9a14,14,0,0,1,2.68-.09A1.4,1.4,0,0,1,615.21,492.67Z" transform="translate(-554.07 -294.45)"/><path d="M559.33,395.74c-1.19-.08-2.93.25-1.42-1.88C558.9,394.1,560,394.28,559.33,395.74Z" transform="translate(-554.07 -294.45)"/><path d="M646.16,451.67c0,1,.4,1.64,1.53,1.53-.59.62-1.46,1.37-2.11.79C644.71,453.23,645.65,452.39,646.16,451.67Z" transform="translate(-554.07 -294.45)"/><path d="M704.59,523.57c1.18,1.65,1.79.18,2.56-.46,0,1.06-.38,2.15-1.47,2.27S704.61,524.4,704.59,523.57Z" transform="translate(-554.07 -294.45)"/><path d="M583.83,419.26l-.52-.48c0-.85.09-1.63,1.05-2a2,2,0,0,0,1,2.4Z" transform="translate(-554.07 -294.45)"/><path d="M719.05,393.38c-.58-1.07-2.69-1.85-1.16-3.33,1.36-1.33,2.87-1.78,4.59.41.5.65,1.06,1.25,1.6,1.87a3.9,3.9,0,0,1,1,4.33c-.3.89-.14,2.29-1.45,2.29a3.72,3.72,0,0,1-3-1.44C719.64,396.27,719.65,394.72,719.05,393.38Z" transform="translate(-554.07 -294.45)"/><path d="M704.05,398.34c4.55,3.5,5.25,8.22,4.36,13.7a2.79,2.79,0,0,1-1.1-2.54,13.61,13.61,0,0,0-4.62-9.32c-.47-.45-1.07-.89-.8-1.68s1-.7,1.64-.52A.58.58,0,0,1,704.05,398.34Z" transform="translate(-554.07 -294.45)"/><path d="M717,392.92l.42.46c1.17,1.43,3,2.57,2,4.9l0,0c-1.79.45-3.36,2.09-5.43,1-.79-.68-1.46-1.39-.54-2.45.4-1.57.67-3.22,2.41-4C716.36,392.63,716.73,392.48,717,392.92Z" transform="translate(-554.07 -294.45)"/><path d="M714.55,389.78c-1.42.15-2.57-.09-2.45-1.71.1-1.19.21-2.8,1.94-2.61s3.87.71,4,2.2C718.18,388.94,716.28,390.1,714.55,389.78Z" transform="translate(-554.07 -294.45)"/><path d="M718.58,405.26c-1.65-1.05-4.51-1.29-3-4.46,1.38-1.18,2.91-.9,4.45-.43l0,0a3.62,3.62,0,0,1,.15,4.37C719.83,405.28,719.36,405.84,718.58,405.26Z" transform="translate(-554.07 -294.45)"/><path d="M708.15,389.36c-1.35.15-1.65-.6-1.62-1.65,0-1.48,1.82-2.92,3.46-2.86.9,0,1.21.49,1,1.27C710.61,387.71,710.4,389.51,708.15,389.36Z" transform="translate(-554.07 -294.45)"/><path d="M698.61,408.28c.36,1.11,2.25,2.08.65,3.37a3.21,3.21,0,0,1-3.93.18c-.72-.47-.82-1-.24-1.6a23,23,0,0,0,1.39-2C697.09,407.3,697.91,407.32,698.61,408.28Z" transform="translate(-554.07 -294.45)"/><path d="M716.65,406.18c1.21.14,2.34.59,2.3,1.82s-.52,2.84-2,3a1.91,1.91,0,0,1-1.85-2.17C715.26,407.82,715.09,406.43,716.65,406.18Z" transform="translate(-554.07 -294.45)"/><path d="M711.05,391.83c1-1.46,2.17-1.16,3.43-.46.58,2-.36,3.34-1.85,4.48a1.74,1.74,0,0,1-1.39.9C710.45,395.14,710.84,393.49,711.05,391.83Z" transform="translate(-554.07 -294.45)"/><path d="M695.18,421.31c-.57-.11-1.45.35-1.71-.44s.61-1.21,1.19-1.62l1-.71c.64-.48,1.26-1.42,2.09-1s.78,1.42.68,2.22c-.14,1.09-1,1.41-2,1.47Z" transform="translate(-554.07 -294.45)"/><path d="M692,419c-.79.08-1.27-.13-1.4-.82s2.75-3.1,3.74-3.2,1.32.51,1.17,1.17C695.13,418.06,693.33,418.35,692,419Z" transform="translate(-554.07 -294.45)"/><path d="M723,404.8c-.5.66-.15,1.93-1.46,2-.2-2.16-1.59-4.31,0-6.47,1.59-.8,2.36-.23,2.44,1.47C723.73,402.8,724.13,404.05,723,404.8Z" transform="translate(-554.07 -294.45)"/><path d="M708.13,395.78a5.39,5.39,0,0,1-1-3.51,1.35,1.35,0,0,1,1.48-1.35c1,0,1.17.72,1,1.35-.35,1.2,1.15,3.22-1.43,3.5Z" transform="translate(-554.07 -294.45)"/><path d="M730.49,391.68c0,1.15,0,2.14-1.19,2.05-1.56-.12-1.39-1.63-1.67-2.63a1.26,1.26,0,0,1,1.27-1.69C730.68,389.41,730,391.12,730.49,391.68Z" transform="translate(-554.07 -294.45)"/><path d="M699.42,395.26c-1.14,0-1.39-.63-1.16-1.36.39-1.19.31-2.8,2.08-3,.63-.07,1.24.36.93,1.08C700.76,393.16,701.08,394.92,699.42,395.26Z" transform="translate(-554.07 -294.45)"/><path d="M728.08,385.81c.35.76.7,1.48-.26,2.11-.69.46-1.36.66-1.94,0s-1.89-1.27-.84-2.55C726.42,383.17,727.19,384.85,728.08,385.81Z" transform="translate(-554.07 -294.45)"/><path d="M717.14,379.38c1.1.48,2.83,0,2.86,2,0,.73-.52,1.12-1.14.89-1.19-.41-2.75-.49-3.11-2C715.52,379.27,716.54,379.52,717.14,379.38Z" transform="translate(-554.07 -294.45)"/><path d="M721.51,410.49c-.25.76-.5,1.71-.89,2.61-.24.58-.63,1.32-1.44.93a1.34,1.34,0,0,1-.52-1.92c.39-.8.92-1.54,1.39-2.31.24-.42.46-1,1.06-.79S721.43,409.84,721.51,410.49Z" transform="translate(-554.07 -294.45)"/><path d="M701.3,417.19c1,.1,2,.14,1.86,1.47s-1.16,1.53-2.15,1.57c-1.3,0-1.35-1-1.34-1.91C699.68,417.13,700.36,416.94,701.3,417.19Z" transform="translate(-554.07 -294.45)"/><path d="M717.61,415.49c0,.81-2.52,2.82-3.3,2.68-.08,0-.18,0-.24-.06a.84.84,0,0,1-.18-1.3c.8-1,1.58-2.21,3-2.42C717.46,414.3,717.61,415,717.61,415.49Z" transform="translate(-554.07 -294.45)"/><path d="M700.57,396.35c.07,1.58.39,3.2-1,4.48-.77-.62-.3-1.52-.58-2.25,0,.8-.86,1.78.58,2.24,0,1-.24,2.14-1.24,2.1s-1.06-1.4-1.13-2.22c-.28-3.33.52-4.29,3.33-4.34Z" transform="translate(-554.07 -294.45)"/><path d="M701.63,386c-.84,1-1.53,2.17-3,2.39a.67.67,0,0,1-.76-.95,3.84,3.84,0,0,1,2.6-2.71C701,384.56,701.39,385.28,701.63,386Z" transform="translate(-554.07 -294.45)"/><path d="M723.07,384.76c-1.14-.4-1.92-1-1.77-2.16.08-.62.31-1.48,1.19-1.18s2,.45,1.88,1.59A1.79,1.79,0,0,1,723.07,384.76Z" transform="translate(-554.07 -294.45)"/><path d="M696.2,394.62c-.48,0-.84-.19-.84-.49a8.35,8.35,0,0,1,1.41-4.35.5.5,0,0,1,.84,0c.69,1-.14,1.87-.37,2.78C697.06,393.34,697,394.24,696.2,394.62Z" transform="translate(-554.07 -294.45)"/><path d="M715,424.75c-.72,0-1.41-.12-1.25-.68.33-1.2,1.49-1.64,2.53-2,.61-.24,1.31.15,1.14.82C717.07,424.1,715.81,424.34,715,424.75Z" transform="translate(-554.07 -294.45)"/><path d="M705.34,421.19a2.09,2.09,0,0,1,2-1.34c1-.09,1.23.66,1.24,1.45a1.14,1.14,0,0,1-1.38,1.29A2.65,2.65,0,0,1,705.34,421.19Z" transform="translate(-554.07 -294.45)"/><path d="M693.54,431.49a1.84,1.84,0,0,1-1.73,1.71c-.66.11-1.17-.17-1.13-.91.06-1,.27-2,1.58-2.05C693,430.22,693.44,430.7,693.54,431.49Z" transform="translate(-554.07 -294.45)"/><path d="M725,402.3c.17-.72.35-1.57,1.36-1.2.77.29.63,1,.4,1.68-.39,1.06-.31,2.66-2.25,2C723.83,403.81,724.65,403.1,725,402.3Z" transform="translate(-554.07 -294.45)"/><path d="M712.6,412.8c.16-.18.31-.36.47-.53.8-.42,1.63-1.52,2.46-.15.7,1.15-.5,1.7-1.13,2.07C713,415,712.84,413.74,712.6,412.8Z" transform="translate(-554.07 -294.45)"/><path d="M724.47,413.85a11.67,11.67,0,0,1-1.72,3.84.75.75,0,0,1-1.07.3c-.51-.31-.65-.83-.21-1.23C722.41,415.91,722.59,414.34,724.47,413.85Z" transform="translate(-554.07 -294.45)"/><path d="M727.09,406.9c.48.53.5,1,.2,1.29-1.12,1.08-.33,3.25-2.23,3.86-.09,0-.37-.18-.36-.25A9.66,9.66,0,0,1,727.09,406.9Z" transform="translate(-554.07 -294.45)"/><path d="M723,411.48c-.17-.69-.34-1-.27-1.15.51-1.27.42-2.82,1.65-3.75.26-.2.71.08.68.45A7.13,7.13,0,0,1,723,411.48Z" transform="translate(-554.07 -294.45)"/><path d="M715.73,384c-.05-.87.36-1.13.92-1.06.91.11,1.88.35,2.17,1.34.2.67-.39,1.12-1,1A2.52,2.52,0,0,1,715.73,384Z" transform="translate(-554.07 -294.45)"/><path d="M704.59,394.82c-1-.32-2.14-.6-1-2,.79-.22,1.71-1,2.25.25S705.65,394.69,704.59,394.82Z" transform="translate(-554.07 -294.45)"/><path d="M729.54,402.12c-.56.72,0,2.27-1.52,2.37-.58,0-.55-.82-.34-1.2.47-.89-.1-2.43,1.3-2.65C729.75,400.53,729.45,401.5,729.54,402.12Z" transform="translate(-554.07 -294.45)"/><path d="M693.35,412.28c.62.07,1.07.39.92.78-.49,1.26-1.74,1.64-2.85,2.13-.29.13-.73-.25-.57-.56A4.42,4.42,0,0,1,693.35,412.28Z" transform="translate(-554.07 -294.45)"/><path d="M698.33,415.35c-.53-.12-1.54.27-1.42-.75s1.11-1.09,1.92-1.23c.63-.11,1.22,0,1.26.79C700.15,415.41,699.2,415.31,698.33,415.35Z" transform="translate(-554.07 -294.45)"/><path d="M705.12,416.89l2.83-.52c.43,1.53-.52,2.15-1.73,2.32C704.72,418.9,705.09,417.73,705.12,416.89Z" transform="translate(-554.07 -294.45)"/><path d="M707.71,426.93a12.71,12.71,0,0,1,1.53-1c.79-.35,1.54-1,2.48-.5a.62.62,0,0,1,.16.61,2.39,2.39,0,0,1-2.46,1.2A14.08,14.08,0,0,1,707.71,426.93Z" transform="translate(-554.07 -294.45)"/><path d="M709.55,418.77l.51-.53c.7-.11,1.59-1.06,2,.29a1.57,1.57,0,0,1-1.15,1.91C709.44,420.84,709.69,419.58,709.55,418.77Z" transform="translate(-554.07 -294.45)"/><path d="M703.31,405.66a1.24,1.24,0,0,1-1.21-1.36c0-.61.26-1.21.94-1.24a1.34,1.34,0,0,1,1.34,1.21C704.52,405.06,703.85,405.38,703.31,405.66Z" transform="translate(-554.07 -294.45)"/><path d="M703.22,384.34c-.66-.13-1.21-.5-1-1.14a1.74,1.74,0,0,1,1.85-1.28.84.84,0,0,1,.86,1A1.78,1.78,0,0,1,703.22,384.34Z" transform="translate(-554.07 -294.45)"/><path d="M709.49,424.67c-.47,0-.81-.28-.67-.59A3.21,3.21,0,0,1,711,422c.49-.1.6.51.5.89C711.25,424,710.29,424.32,709.49,424.67Z" transform="translate(-554.07 -294.45)"/><path d="M713.56,403.45c.85.14,1,.8,1,1.48s0,1.26-.82,1.26-1-.56-1-1.17S712.7,403.68,713.56,403.45Z" transform="translate(-554.07 -294.45)"/><path d="M705.63,407.64c0,.92-.33,1.71-1.3,1.8-.54.05-.72-.59-.73-1.11a1.57,1.57,0,0,1,1.35-1.79C705.58,406.45,705.58,407.15,705.63,407.64Z" transform="translate(-554.07 -294.45)"/><path d="M691.42,420.94a1.22,1.22,0,0,1-1.41.81c-.88-.05-1.44-.47-1.29-1.42.09-.53.47-.91,1.08-.66S691.27,420.06,691.42,420.94Z" transform="translate(-554.07 -294.45)"/><path d="M707,428.11a1.29,1.29,0,0,1-1.36,1.12c-.68,0-1.16-.27-1.2-1-.07-.95.73-1,1.37-1S707,427.23,707,428.11Z" transform="translate(-554.07 -294.45)"/><path d="M719.21,421.6c-.59,0-1-.29-1-.88a1.77,1.77,0,0,1,1.49-1.45c.51-.12,1.17,0,1.07.61A2.5,2.5,0,0,1,719.21,421.6Z" transform="translate(-554.07 -294.45)"/><path d="M725.49,389.62c-.06.54-.31,1-.74.88a2.1,2.1,0,0,1-1.6-1.95.64.64,0,0,1,.88-.6A1.85,1.85,0,0,1,725.49,389.62Z" transform="translate(-554.07 -294.45)"/><path d="M721.49,387.35c-.67-.13-1.28-.42-1.38-1.18s.38-.87.93-.83a1.32,1.32,0,0,1,1.39,1.16C722.51,387.14,722.07,387.35,721.49,387.35Z" transform="translate(-554.07 -294.45)"/><path d="M713.51,383.82c-.6,0-1.17-.2-1.25-.88s.47-1,1.08-1a1.06,1.06,0,0,1,1.12,1C714.5,383.65,714.05,383.8,713.51,383.82Z" transform="translate(-554.07 -294.45)"/><path d="M729,397.28c0-.58,0-1.31.77-1.33s.74.72.74,1.29-.17,1.3-.82,1.33C728.85,398.62,729.05,397.81,729,397.28Z" transform="translate(-554.07 -294.45)"/><path d="M709.61,416.73a1.89,1.89,0,0,1,1-2c.51.1,1.42-.14,1.29.66C711.67,416.56,710.71,416.89,709.61,416.73Z" transform="translate(-554.07 -294.45)"/><path d="M715.06,420.51a1.72,1.72,0,0,1-1.48,1.43.59.59,0,0,1-.79-.66c.05-.78.75-1,1.35-1.26A.62.62,0,0,1,715.06,420.51Z" transform="translate(-554.07 -294.45)"/><path d="M713.19,380.82c-.75-.07-1.37-.17-1.36-.94,0-.55.54-.56.94-.57s1.05,0,1.18.64S713.52,380.7,713.19,380.82Z" transform="translate(-554.07 -294.45)"/><path d="M700.9,389.1c.44-.83.81-1.63,1.9-1.48.13,0,.34.57.27.81C702.74,389.64,701.92,389.51,700.9,389.1Z" transform="translate(-554.07 -294.45)"/><path d="M727.57,398.15c0,.53-.14,1.07-.77,1.09s-.75-.54-.72-1.06.26-1.07.81-1.1C727.6,397,727.55,397.66,727.57,398.15Z" transform="translate(-554.07 -294.45)"/><path d="M710.7,382.82a7.46,7.46,0,0,1-3.59,1C708.25,382.62,709.09,382,710.7,382.82Z" transform="translate(-554.07 -294.45)"/><path d="M708.09,399.83c.85,0,1.73-.05,1.75,1.12a.94.94,0,0,1-.62.65c-1.19,0-1.08-1-1.12-1.77Z" transform="translate(-554.07 -294.45)"/><path d="M705.4,390c-.22.58-.56,1.15-1.32,1.15-.4,0-.49-.4-.4-.72.17-.64.46-1.26,1.26-1.23C705.29,389.19,705.43,389.55,705.4,390Z" transform="translate(-554.07 -294.45)"/><path d="M709.58,397.82c.82.11,1.65.27,1.93,1.2a.46.46,0,0,1-.55.59,1.82,1.82,0,0,1-1.38-1.79Z" transform="translate(-554.07 -294.45)"/><path d="M728.08,385.81c-1-.55-1.77-1.94-3-.47.11-.81.43-1.55,1.36-1.41A2,2,0,0,1,728.08,385.81Z" transform="translate(-554.07 -294.45)"/><path d="M701.18,409.88a.86.86,0,0,1,.73-.86c.52,0,.65.38.64.83s-.19.84-.68.84S701.15,410.38,701.18,409.88Z" transform="translate(-554.07 -294.45)"/><path d="M711.05,391.83c.06,1.64.13,3.28.19,4.92C710.1,395.16,710.41,393.5,711.05,391.83Z" transform="translate(-554.07 -294.45)"/><path d="M575.06,405.2a7.2,7.2,0,0,0-3.77,0c-2,.51-3.27-.34-4.56-1.7s-.84-2.29.53-3.13c2-1.19,7.76-.87,9.53.62.84.72,2.06,1.47,1.4,2.85C577.64,405.05,576.46,405.3,575.06,405.2Z" transform="translate(-554.07 -294.45)"/><path d="M579.84,417.73l-.51-.48c0-1.73,1.34-2.92,1.91-4.43.33-.9,1.69-.66,2.48-.38,1.09.4.37,1.28.08,1.85a11.49,11.49,0,0,1-1.88,3.15C581.24,418.12,580.65,418.42,579.84,417.73Z" transform="translate(-554.07 -294.45)"/><path d="M575.31,390.89c.43.81.63,1.93-.58,1.74-2.36-.39-4.51.4-6.75.67-1.8.22-1.18-.63-.62-1.45a1.62,1.62,0,0,1,1.64-1.24C571.1,390.71,573.23,390.26,575.31,390.89Z" transform="translate(-554.07 -294.45)"/><path d="M554.36,396.87c-.35-.35-.43-.7,0-1,2-.28,3.42,0,3.78,2.49.24,1.73-.08,2.49-1.81,2.56l-.53-.55A12.13,12.13,0,0,0,554.36,396.87Z" transform="translate(-554.07 -294.45)"/><path d="M576.91,408.75c0,1.14,0,2.11-1.22,1.93-1.78-.25-1.74-2-2.23-3.2-.36-.89.39-1.14,1.13-1.05C576.1,406.61,577,407.4,576.91,408.75Z" transform="translate(-554.07 -294.45)"/><path d="M574.84,398.33l-1,0a10.92,10.92,0,0,0-5,0,2.05,2.05,0,0,1-.49,0c-.81.38-1.3.24-.89-.73.24-.58.86-.91,1.38-1.27h0a12.93,12.93,0,0,1,5.07-.14C575,396.3,576.43,396.81,574.84,398.33Z" transform="translate(-554.07 -294.45)"/><path d="M569.88,410.21a3.15,3.15,0,0,1-1-2.89c.84-.35,1.74-.9,2.52-.06s1.69,1.53,1.22,2.52S570.81,410.09,569.88,410.21Z" transform="translate(-554.07 -294.45)"/><path d="M574.87,416.26c0-1.08,0-2.15,0-3.22a.91.91,0,0,1,.89-1,1.13,1.13,0,0,1,.79.45c.81,1.15-.18,3.25-1.73,3.75Z" transform="translate(-554.07 -294.45)"/><path d="M571.83,414.86l-.57-.56c.25-.82-1.31-2,.33-2.47A1.48,1.48,0,0,1,573.7,413C573.93,414.39,573.19,415,571.83,414.86Z" transform="translate(-554.07 -294.45)"/><path d="M591.26,409.16l0,1.3c-1.41,1-2.69.5-3.93-.38-.28-1.88.43-2.41,2.16-1.59C590.05,408.76,590.67,408.94,591.26,409.16Z" transform="translate(-554.07 -294.45)"/><path d="M580,399a1.35,1.35,0,0,1-1.31,1.23,1.69,1.69,0,0,1-1.81-1.61.92.92,0,0,1,1-1.09A2.53,2.53,0,0,1,580,399Z" transform="translate(-554.07 -294.45)"/><path d="M578.27,416.75h-.87c.16-1.21.29-2.43.5-3.63a.88.88,0,0,1,1.29-.72c.6.2.62.71.42,1.21C579.18,414.66,578.72,415.7,578.27,416.75Z" transform="translate(-554.07 -294.45)"/><path d="M583.6,410.83c-.59-.16-1.82.27-1.6-.82.26-1.28,1.77-.78,2.71-1.13a.68.68,0,0,1,1,.72C585.56,410.85,584.55,410.78,583.6,410.83Z" transform="translate(-554.07 -294.45)"/><path d="M587.27,399.36a4.17,4.17,0,0,1,.49,2.93c-.61.12-1.28,1.45-1.71.44C585.56,401.55,585.43,400,587.27,399.36Z" transform="translate(-554.07 -294.45)"/><path d="M561.38,404A2.53,2.53,0,0,1,558,402.9c-.3-.46,0-1,.65-1C560.21,401.76,560.7,402.87,561.38,404Z" transform="translate(-554.07 -294.45)"/><path d="M571.24,394.46a5.7,5.7,0,0,1,3.79-.58c.49,0,1,.27,1,.86s-.69.55-1.14.47C573.66,395,572.45,394.72,571.24,394.46Z" transform="translate(-554.07 -294.45)"/><path d="M577.88,395.79c.38-.26.46-.36.52-.35,1.36.23,2.74.44,3.64,1.65.07.09-.14.57-.25.58C580.13,397.79,579.33,396.39,577.88,395.79Z" transform="translate(-554.07 -294.45)"/><path d="M566.83,395.49c-1,1.11-1.57,2.12-3,1.91-.13,0-.36-.61-.27-.83C564.14,395.21,565.21,395.07,566.83,395.49Z" transform="translate(-554.07 -294.45)"/><path d="M574.84,398.33c.75-1.42-.23-1.82-1.29-1.91-1.56-.14-3.14-.08-4.71-.1,1.88-1,3.88-.63,5.75-.21C575.93,396.41,576.63,397.38,574.84,398.33Z" transform="translate(-554.07 -294.45)"/><path d="M580.27,409.59c0,.64-.18,1.13-.92,1.15s-1-.41-1-1.06-.07-1.27.69-1.31S580.17,408.86,580.27,409.59Z" transform="translate(-554.07 -294.45)"/><path d="M570.33,414.31c-.19.88.69,2.17-1,2.46l-.53-1.5a1.13,1.13,0,0,1,0-1.48l.52-.51Z" transform="translate(-554.07 -294.45)"/><path d="M584.8,403.4c0,.76,0,1.52-.84,1.65s-.7-.53-.67-1c0-.65.12-1.38,1-1.44C584.82,402.56,584.71,403.14,584.8,403.4Z" transform="translate(-554.07 -294.45)"/><path d="M580.66,402.78c-.61-.11-.94-.49-.77-1a1.39,1.39,0,0,1,1.39-1.16c.52,0,.57.52.57.93A1.2,1.2,0,0,1,580.66,402.78Z" transform="translate(-554.07 -294.45)"/><path d="M562.43,402.46a1.36,1.36,0,0,1-1-1.39.69.69,0,0,1,.86-.64,1.14,1.14,0,0,1,1,1.36A.71.71,0,0,1,562.43,402.46Z" transform="translate(-554.07 -294.45)"/><path d="M586.23,397.05c-.05.53-.25,1-.83,1s-.61-.44-.6-.85.19-1,.78-1S586.18,396.63,586.23,397.05Z" transform="translate(-554.07 -294.45)"/><path d="M584.35,399.59c0,.47,0,1-.52,1-.75.08-.93-.51-1-1.09a.71.71,0,0,1,.65-.86C584.11,398.64,584.21,399.19,584.35,399.59Z" transform="translate(-554.07 -294.45)"/><path d="M568.84,398.29a6,6,0,0,1,5,0Z" transform="translate(-554.07 -294.45)"/><path d="M580.83,407c-1.34.39-1.84-.1-2.19-1C579.61,405.73,580.2,406.1,580.83,407Z" transform="translate(-554.07 -294.45)"/><path d="M569.84,436.25l3-2.54c4-1.8,8.06-.92,12.09-.48,1.61.18,3.33,0,4.88.74.33.16.91-.07.94.53s-.42.86-.94.95a7.41,7.41,0,0,1-1.49,0,34.62,34.62,0,0,0-9.08.72c-2.53.13-4.74,1.4-7.13,2.05-.77.21-1.59.92-2.34.3S569.92,437,569.84,436.25Z" transform="translate(-554.07 -294.45)"/><path d="M585.1,463.53c-1.49.15-2.13-.36-1.5-1.85.94-2.2,1.86-4.41,2.87-6.58a2.46,2.46,0,0,1,2.47-1.73c1.41.09,2.29.48,1.55,2.14-1,2.19-1.91,4.39-2.86,6.59A2.15,2.15,0,0,1,585.1,463.53Z" transform="translate(-554.07 -294.45)"/><path d="M585.3,445.5a2.08,2.08,0,0,1-1.36,2.45,25.22,25.22,0,0,0-2.65,1.33c-1.64,1-2.68,1-3.51-1.16-.88-2.31.09-3,2-3.39,1.12-.24,2.24-.53,3.34-.87C584.75,443.36,585.53,443.86,585.3,445.5Z" transform="translate(-554.07 -294.45)"/><path d="M584.63,455.59c-1.14,2.46-2.24,5-3.54,7.52-.4.77-1.54.72-2.27.36s-.26-1.16-.05-1.75c.92-2.58,1.12-5.64,4.39-6.68C583.75,454.85,584.42,454.33,584.63,455.59Z" transform="translate(-554.07 -294.45)"/><path d="M568.46,452.17c-.12-.3-.2-.63-.34-.92-1.66-3.41-1.67-3.41,1.81-4.48,1.15.72,2.71,4.21,2.15,5.2C571.05,453.76,569.74,453.3,568.46,452.17Z" transform="translate(-554.07 -294.45)"/><path d="M579.82,437.22l3.46-.37c.74,1,.73,1.78-.61,2.24s-2.63,1-4,1.43c-.68.23-1.53.62-1.81-.47a1.64,1.64,0,0,1,.83-2.11A16.62,16.62,0,0,1,579.82,437.22Z" transform="translate(-554.07 -294.45)"/><path d="M585.76,450.69c0,1.23-3.82,3.83-4.91,3.46a1.71,1.71,0,0,1-.3-2.83,23.18,23.18,0,0,1,3.75-1.82C585.47,449,585.7,449.87,585.76,450.69Z" transform="translate(-554.07 -294.45)"/><path d="M572.88,448.18c-.13-1.37.4-2,1.38-1.91,2.23.24,2.09,2.34,2.51,3.79s-1,1.76-1.92,1.61C572.66,451.32,573.66,449.07,572.88,448.18Z" transform="translate(-554.07 -294.45)"/><path d="M574.37,455.49c-.28-2.52,1.53-2.46,2.77-2.69s1.78,1,1.64,2c-.26,1.71-1.9,2.37-3.24,2.6S574.65,456,574.37,455.49Z" transform="translate(-554.07 -294.45)"/><path d="M578.35,443.74c-.6-.06-1.23.17-1.33-.55-.07-.47.37-.71.75-.85,1.87-.69,3.73-1.38,5.61-2,.46-.16,1-.2,1.28.38a1,1,0,0,1-.74,1.35C582,442.67,580.13,443.21,578.35,443.74Z" transform="translate(-554.07 -294.45)"/><path d="M573.35,457.17c-.18.7.29,1.61-.6,1.78-.62.12-.83-.67-1.1-1.16a15.89,15.89,0,0,1-.78-1.54c-.3-.7-1.06-1.53.27-2,1.12-.36,1.68.27,1.9,1.31Z" transform="translate(-554.07 -294.45)"/><path d="M566.37,446.2a2.93,2.93,0,0,1-.47-2.45,1.64,1.64,0,0,1,1.61-.19c.86.43,2.46-.31,2.55,1.19.07,1.32-1.62.69-2.24,1.38l-1.46.07Z" transform="translate(-554.07 -294.45)"/><path d="M571.89,440.28c.28-.16.55-.35.85-.49.72-.34,1.48-1,2.25-.25a1.19,1.19,0,0,1,0,1.6,2.39,2.39,0,0,1-2.4,1c-1.1-.2-.59-1.16-.68-1.82Z" transform="translate(-554.07 -294.45)"/><path d="M589.8,437.74l1.14.28a7.82,7.82,0,0,1-3.69,2.59.63.63,0,0,1-.86-.6c0-.67.4-1,1-1.22.82-.32,1.62-.7,2.43-1.05Z" transform="translate(-554.07 -294.45)"/><path d="M572.78,445c-.58.09-1.22,0-1-.65.27-.89,1.23-1,2-1.09.53-.06,1.43-.17,1.26.66C574.8,445.06,573.5,444.6,572.78,445Z" transform="translate(-554.07 -294.45)"/><path d="M567.39,442.16c.19-1.09,1.08-1.26,1.94-1.46.78.13,1.25.59.77,1.31C569.34,443.18,568.33,442.68,567.39,442.16Z" transform="translate(-554.07 -294.45)"/><path d="M587.79,436.26a3.69,3.69,0,0,1-.46,1.09,1.19,1.19,0,0,1-1.57.2.69.69,0,0,1-.17-.61c.21-.53.71-.63,1.22-.66.33,0,.66,0,1,0Z" transform="translate(-554.07 -294.45)"/><path d="M593.78,439.72c0-.68-.44-1-1-1a1,1,0,0,0,0-.46c.64-.47,1.42-.81,1.89,0C595,438.84,594.49,439.44,593.78,439.72Z" transform="translate(-554.07 -294.45)"/><path d="M591.82,349l.49,0c1.34-.12,2.76-1.88,3.86-.66a7.64,7.64,0,0,1,2.05,5.61l-.46.47c-1.24.92-1.89,2.48-3.4,3.1-1.78,1.06-3,2.76-4.51,4.11-.71.64-1.37,1.75-2.42,1.29s-.77-1.66-.68-2.63c1.3-3.45,1.74-7.24,4.06-10.28Z" transform="translate(-554.07 -294.45)"/><path d="M596.19,335.85c-1.21,1.29-2.86,1.51-4.66,2,.16-2.9,2.25-4.87,2.78-7.4a46.47,46.47,0,0,1,4-5.9c1.15-.89,1.8-2.48,3.54-2.51l.92-.61c1.67-.38,1.3.75,1,1.54a12.47,12.47,0,0,1-1.93,3.15C599.59,329.15,598.25,332.71,596.19,335.85Z" transform="translate(-554.07 -294.45)"/><path d="M590.31,339.93c.48-.08,1-.13,1.46-.26,1.72-.46,1.66.29,1.13,1.54a43.19,43.19,0,0,0-2.7,6.66L588.3,349c-1.14.49-1.18-.3-1.25-1.08a8.77,8.77,0,0,1,2.25-6.44C589.28,340.7,589.91,340.4,590.31,339.93Z" transform="translate(-554.07 -294.45)"/><path d="M570.41,362.81c.32-1.76.64-3.53,1-5.29.56-2.94.63-3,2.91-1.06a4,4,0,0,1,1,2.87c-.62,3.81-1.29,4.28-4.92,3.49Z" transform="translate(-554.07 -294.45)"/><path d="M588.74,331.82l-4.87.48c1.69-3.18,3.68-5.37,7.17-5.82,1.39-.18,1.59.3,1.2,1.45Z" transform="translate(-554.07 -294.45)"/><path d="M572.41,352c.67-1,.83-2.37,2-3,1.13.2,2.89-.9,3.29.63.53,2-.66,4-1.53,5.87-.26.55-.76.21-1-.09C574.24,354.3,572.76,353.62,572.41,352Z" transform="translate(-554.07 -294.45)"/><path d="M577.29,357.47c.62-2.17,1.38-4.87,2.16-7.56a.88.88,0,0,1,.89-.72.91.91,0,0,1,.93,1,63.18,63.18,0,0,1-2.43,9.56c-.1.34-.47.57-.76.32A2.92,2.92,0,0,1,577.29,357.47Z" transform="translate(-554.07 -294.45)"/><path d="M585.82,347.92c-.78,1-.53,3.43-2.41,2.72-1-.37.07-2.34.45-3.54.54-1.73,1.16-3.44,1.72-5.17a1.88,1.88,0,0,1,2.23-1.49C588.66,343.34,587.14,345.6,585.82,347.92Z" transform="translate(-554.07 -294.45)"/><path d="M593.23,321c1.3-1.18,3.2-1,4.57-2,1.06.07.82.68.44,1.21a5.4,5.4,0,0,1-1.06,1.23l-2,2.36-4.73,1.07C590.92,323,592.74,322.44,593.23,321Z" transform="translate(-554.07 -294.45)"/><path d="M591.81,331c1,1.37-.4,2.22-.73,3.29a23.75,23.75,0,0,1-1.18,2.7,6.93,6.93,0,0,1-.52,1.1c-.39.56-1,1.07-1.64.68s-.25-1.13,0-1.7A23.74,23.74,0,0,1,591.81,331Z" transform="translate(-554.07 -294.45)"/><path d="M580.33,347.41c.28-2.22,1.89-3.89,2.5-6,.29-.38.49-1,1.12-.72.47.2.4.72.28,1.09-.54,1.74-1.09,3.48-1.72,5.19C582.05,348.24,581.21,348,580.33,347.41Z" transform="translate(-554.07 -294.45)"/><path d="M580.76,336.4a5.68,5.68,0,0,1,2.52-2c1.11-.08,2.83-1,2,1.51l-.49.53a3.43,3.43,0,0,1-2.17,1.83C581.16,338.54,580.08,338.31,580.76,336.4Z" transform="translate(-554.07 -294.45)"/><path d="M572.3,367.84c-1.45-.18-2.53-.73-2.45-2.45.91-1.74,2.17-1,3.39-.46a2,2,0,0,1-.93,2.92Z" transform="translate(-554.07 -294.45)"/><path d="M574.32,368.88c.34-1.2-1.23-3.68,2-3,.42,1.22-.76,1.93-.95,3C575,369.37,574.66,369.37,574.32,368.88Z" transform="translate(-554.07 -294.45)"/><path d="M575.37,362.4c.48-.3.66-1,1.4-.95a4.74,4.74,0,0,1,.07.74c0,.71,1.08,1.76-.18,2.06S575.34,363.35,575.37,362.4Z" transform="translate(-554.07 -294.45)"/><path d="M624.31,299.24c-2.5,3.71-5.79,4.41-9.16,5C617.61,302,620.56,300.59,624.31,299.24Z" transform="translate(-554.07 -294.45)"/><path d="M597.35,317.44c1.68-2.4,4.36-3.66,6.44-5.61.36-.34.74-.19,1.05.16l-.62,1C602.32,315.05,600.51,317.28,597.35,317.44Z" transform="translate(-554.07 -294.45)"/><path d="M565.82,429.28c0,.33,0,.65,0,1a1.6,1.6,0,0,1-2-.45,1.9,1.9,0,0,1-.67-1.73c0-.73.31-1.33,1-1.45.9-.16,1.32.44,1.45,1.25C565.65,428.34,565.5,428.85,565.82,429.28Z" transform="translate(-554.07 -294.45)"/><path d="M565.31,431.84l.45.46c0,.81.69,1.95-.51,2.26-.7.19-1.18-.77-1.45-1.44C563.05,431.27,564.38,431.78,565.31,431.84Z" transform="translate(-554.07 -294.45)"/><path d="M566.26,424.23l-.45.47c-1.36-1.13-1.28-1.62.53-3.42h0C567.91,422.3,567.2,423.27,566.26,424.23Z" transform="translate(-554.07 -294.45)"/><path d="M563.9,409.3c.83-1.16,1.66-2.35,2.53,0C565.61,411.34,564.75,409.58,563.9,409.3Z" transform="translate(-554.07 -294.45)"/><path d="M567.84,418.28a2.66,2.66,0,0,1-.5,2c-.66-.09-1-.44-1-1.14C566.49,418.21,567.18,418.28,567.84,418.28Z" transform="translate(-554.07 -294.45)"/><path d="M567.39,433.79c.93.09,1.64.54,1.27,1.52-.25.67-.9.39-1.35-.05C567.34,434.77,567.37,434.28,567.39,433.79Z" transform="translate(-554.07 -294.45)"/><path d="M571.86,371.89c-.76.83-.11,2.37-1.46,2.9a9.28,9.28,0,0,1-.54-3.87c0-.73-.11-1.69.87-1.77,1.2-.09,1.09.94,1.11,1.76C571.85,371.24,571.85,371.57,571.86,371.89Z" transform="translate(-554.07 -294.45)"/><path d="M577,347.35c-1.23.09-2.08-.27-1.45-1.66a39.81,39.81,0,0,1,2.56-4.78,2.34,2.34,0,0,1,3.3-.71c1,.7-.29,1.52-.6,2.27-.48,1.14-1.08,2.22-1.53,3.37A2.14,2.14,0,0,1,577,347.35Z" transform="translate(-554.07 -294.45)"/><path d="M577.3,428.2c-3.12.23-3.16.18-2.82-3.33C576.29,425.25,577.68,426,577.3,428.2Z" transform="translate(-554.07 -294.45)"/><path d="M573.45,432.14c0-1.95,1-2.71,2.89-2.42.79.68.27,1.35,0,2A6.37,6.37,0,0,1,573.45,432.14Z" transform="translate(-554.07 -294.45)"/><path d="M568.78,426.84c.12,1.31-.2,2.16-1.18,2.13a1.47,1.47,0,0,1-1.24-1.6c0-1.07.71-1.44,1.57-1.52C569,425.74,568.73,426.62,568.78,426.84Z" transform="translate(-554.07 -294.45)"/><path d="M572.86,424.26c-.14,1.79,1.06,4.42-2.54,4.05-1-1.47-.28-2.84.46-4.05C571.26,423.45,572.16,423.55,572.86,424.26Z" transform="translate(-554.07 -294.45)"/><path d="M581.83,427.34a3.63,3.63,0,0,1-.71-.63c-.43-.66-1.12-1.49-.44-2.14.85-.82,1.58,0,2.14.69C583.31,426.34,583.71,427.38,581.83,427.34Z" transform="translate(-554.07 -294.45)"/><path d="M575.86,419.22c-.05.82-.11,1.57-1.06,1.41s-1-1-.94-1.75.24-1.45,1.09-1.31S575.82,418.62,575.86,419.22Z" transform="translate(-554.07 -294.45)"/><path d="M571.36,418.6c.06-.65,0-1.56.81-1.61,1-.06.69.91.69,1.5s.16,1.55-.72,1.6S571.42,419.22,571.36,418.6Z" transform="translate(-554.07 -294.45)"/><path d="M574,422.78c0-.69.27-1,.76-.91a1.49,1.49,0,0,1,1.39,1.22c.09.39-.27.61-.62.57A2,2,0,0,1,574,422.78Z" transform="translate(-554.07 -294.45)"/><path d="M578.29,420.25c0,.52-.16,1-.81.89s-.66-.63-.66-1.11,0-1.11.64-1S578.26,419.65,578.29,420.25Z" transform="translate(-554.07 -294.45)"/><path d="M570.29,419.38c0,.51-.17,1.1-.89,1.11-.54,0-.54-.5-.53-.89a1,1,0,0,1,.78-1.09C570.15,418.43,570.29,418.87,570.29,419.38Z" transform="translate(-554.07 -294.45)"/><path d="M578.47,423.42a1,1,0,0,1,.77,1.06c0,.35-.2.66-.58.57a1,1,0,0,1-.78-1.05A.54.54,0,0,1,578.47,423.42Z" transform="translate(-554.07 -294.45)"/><path d="M605.77,342.94a24,24,0,0,0-6.42,1.6c-1.57.61-2.18.09-2.1-1.47.12-2.06-.8-4.32,1.12-6a2,2,0,0,1,.85-1.17c2.74-1.95,5.38-4,8-6.18A5,5,0,0,1,610,328.3c.77-.05,1.31.24.63,1.12a32.86,32.86,0,0,0-3.87,10.82A5.28,5.28,0,0,1,605.77,342.94Z" transform="translate(-554.07 -294.45)"/><path d="M606.71,348.41c-1.36.78-2.69,1.62-4.1,2.31-.88.44-1.83,1.69-2.84.69a5.89,5.89,0,0,1-1.47-4.11c0-.7.68-.84,1.23-1a32.47,32.47,0,0,1,6.7-1.78Z" transform="translate(-554.07 -294.45)"/><path d="M612.1,347.87a18.82,18.82,0,0,0-2,0c-1.18.13-2-.15-2-1.53,0-1.14-.29-2.44,1.39-2.71,1.39-.23,2.78-.45,4.18-.58,3.23-.31,3.38-.06,3.08,3.1-.12,1.37-.58,2-2,1.77-.9-.13-1.82-.12-2.73-.17Z" transform="translate(-554.07 -294.45)"/><path d="M626.18,353.05c-1.39,3.19-1.44,3.2-4.35,1.63-1.16-.62-2.33-1.2-3.5-1.8-.44-2.27.12-3,2.2-2.6S624.73,351.25,626.18,353.05Z" transform="translate(-554.07 -294.45)"/><path d="M625.83,357.81c.19-1.54.7-3.14,2.2-3.61s2.87,1,4.16,1.79c1.14.69,0,1.26-.49,1.57-1.13.66-2.5.87-3.5,1.8h0c-1.54.66-1.94-.48-2.41-1.51Z" transform="translate(-554.07 -294.45)"/><path d="M612.19,349.32a7.32,7.32,0,0,1,3.62.6,1.33,1.33,0,0,1,.77,1.65,1.05,1.05,0,0,1-1.41.66,17.85,17.85,0,0,0-4.43-.37c-.89,0-1.79-.13-1.82-1.22s.93-1.19,1.78-1.25C611.28,349.35,611.86,349.34,612.19,349.32Z" transform="translate(-554.07 -294.45)"/><path d="M612,353.09c1.37.47,2.88.05,4.17.79.35.2.8.39.65.91s-.61.47-1,.4l-3.92-.69c-.54-.09-1.41.09-1.38-.68S611.4,353,612,353.09Z" transform="translate(-554.07 -294.45)"/><path d="M640.16,356.11c.45.64,1.38,1.16.86,2.11s-1.46.57-2.25.61c-.32-.66-1.11-1.07-1-1.93C638.32,356,638.94,355.13,640.16,356.11Z" transform="translate(-554.07 -294.45)"/><path d="M636.68,359.37c-1.16.16-2.37,0-3.46.53l-2-.1C634.31,357.21,635.88,357.11,636.68,359.37Z" transform="translate(-554.07 -294.45)"/><path d="M623.71,357.45c0,.14,0,.28,0,.42-2-.06-3.42-1.14-5.18-2.52C621.07,354.87,622.12,356.8,623.71,357.45Z" transform="translate(-554.07 -294.45)"/><path d="M626.64,362.51c-.14.44-.29.87-.44,1.31-.64.32-1.3.81-2,.11a1,1,0,0,1-.2-.84C624.68,362.05,625.69,362.37,626.64,362.51Z" transform="translate(-554.07 -294.45)"/><path d="M600.16,333.89c-.29.7-1.13,1.18-1.5.79-.81-.83,0-1.6.58-2.29C599.36,333,599.17,333.81,600.16,333.89Z" transform="translate(-554.07 -294.45)"/><path d="M599.68,331.4a8.67,8.67,0,0,1,2.13-3.39A4,4,0,0,1,599.68,331.4Z" transform="translate(-554.07 -294.45)"/><path d="M640.23,362.28c-.64-.25-1.35-.26-1.31-1,0-.56.55-.78,1.07-.77a.93.93,0,0,1,1,.83C641.07,361.94,640.57,362.08,640.23,362.28Z" transform="translate(-554.07 -294.45)"/><path d="M632.1,528.49c-2,.43-3.92.89-5.9.07.08-4.26-.9-8.4-1.59-12.57-.14-.82-.91-2,.5-2.24,1.13-.24,2.55-.62,3.13,1.1A96.31,96.31,0,0,1,632.1,528.49Z" transform="translate(-554.07 -294.45)"/><path d="M699.61,400.82c-.55.2-.5,1.07-1.53,1.09,0-1.19,0-2.38,0-3.57,0-.86.43-1.5,1.37-1.3s.68,1,.6,1.63-.3,1.44-.45,2.16Z" transform="translate(-554.07 -294.45)"/><path d="M595,340.64c.36,1.69.63,2.64.75,3.6a2.37,2.37,0,0,1-2.59,2.57c-.9-.12-.81-.73-.56-1.28C593.22,344.11,593.94,342.72,595,340.64Z" transform="translate(-554.07 -294.45)"/><path d="M571.76,432.66c-2-.24-1.36-1.73-1.42-2.9C573.44,429.44,572.06,431.31,571.76,432.66Z" transform="translate(-554.07 -294.45)"/><path d="M572.38,425.93c-.07.78.18,1.79-1.11,1.78a.73.73,0,0,1-.76-1c.26-.8.09-2,1.25-2.15C572.52,424.48,572.3,425.4,572.38,425.93Z" transform="translate(-554.07 -294.45)"/></svg>