<svg id="Calque_1" data-name="Calque 1" xmlns="http://www.w3.org/2000/svg" viewBox="0 0 1246.93 98.88"><path d="M56,473.88V375H81v98.88Zm50.05,0V375h25v98.88Zm50.05,0V375h12.51v98.88Zm100.1,0V375h12.51v98.88Zm-62.56,0V375h37.53v98.88Zm100.1,0V375h25v98.88Zm50.05,0V375h12.51v98.88Z" transform="translate(-56.01 -375)"/><path d="M419.31,473.88V375h25v98.88Zm50.05,0V375h25v98.88Zm50,0V375h12.51v98.88Zm100.1,0V375H632v98.88Zm-62.56,0V375h37.53v98.88Zm100.1,0V375h25v98.88Zm50.05,0V375h12.51v98.88Z" transform="translate(-56.01 -375)"/><path d="M765,473.88V375h25v98.88Zm50,0V375h12.51v98.88Zm100.1,0V375h12.51v98.88Zm-62.56,0V375h37.53v98.88Zm100.1,0V375h25v98.88Zm50.05,0V375h12.51v98.88Z" transform="translate(-56.01 -375)"/><path d="M1002.64,473.88V375h25v98.88Zm100.1,0V375h12.51v98.88Zm100.1,0V375h12.51v98.88Zm-62.57,0V375h37.54v98.88Zm100.1,0V375h25v98.88Zm50.05,0V375h12.52v98.88Z" transform="translate(-56.01 -375)"/></svg>